STARTFONT 2.1
COMMENT
COMMENT Converted from OpenType font "paradise.ttf" by "otf2bdf 3.0".
COMMENT
FONT -FreeType-Mx437 Paradise132 7x9-Medium-R-Normal--58-580-72-72-P-230-ISO10646-1
SIZE 58 72 72
FONTBOUNDINGBOX 34 44 0 -10
STARTPROPERTIES 19
FOUNDRY "FreeType"
FAMILY_NAME "Mx437 Paradise132 7x9"
WEIGHT_NAME "Medium"
SLANT "R"
SETWIDTH_NAME "Normal"
ADD_STYLE_NAME ""
PIXEL_SIZE 58
POINT_SIZE 580
RESOLUTION_X 72
RESOLUTION_Y 72
SPACING "P"
AVERAGE_WIDTH 230
CHARSET_REGISTRY "ISO10646"
CHARSET_ENCODING "1"
FONT_ASCENT 33
FONT_DESCENT 9
COPYRIGHT "Outline (vector) version by VileR, 2020"
_OTF_FONTFILE "paradise.ttf"
_OTF_PSNAME "Mx437_Paradise132_7x9"
ENDPROPERTIES
CHARS 294
STARTCHAR 0000
ENCODING 0
SWIDTH 586 0
DWIDTH 34 0
BBX 0 0 0 0
BITMAP
ENDCHAR
STARTCHAR 0001
ENCODING 1
SWIDTH 586 0
DWIDTH 34 0
BBX 24 34 5 0
BITMAP
07FFE0
07FFE0
07FFE0
07FFE0
07FFE0
F8001F
F8001F
F8001F
F8001F
F8001F
FFC3FF
FFC3FF
FFC3FF
FFC3FF
FFC3FF
F8001F
F8001F
F8001F
F8001F
FFFFFF
FFFFFF
FFFFFF
FFFFFF
FFFFFF
F87C1F
F87C1F
F87C1F
F87C1F
F87C1F
07FFE0
07FFE0
07FFE0
07FFE0
07FFE0
ENDCHAR
STARTCHAR 0002
ENCODING 2
SWIDTH 586 0
DWIDTH 34 0
BBX 24 34 5 0
BITMAP
07FFE0
07FFE0
07FFE0
07FFE0
07FFE0
FFFFFF
FFFFFF
FFFFFF
FFFFFF
FFFFFF
F87C1F
F87C1F
F87C1F
F87C1F
F87C1F
FFFFFF
FFFFFF
FFFFFF
FFFFFF
FFFFFF
F8001F
F8001F
F8001F
F8001F
FFC3FF
FFC3FF
FFC3FF
FFC3FF
FFC3FF
07FFE0
07FFE0
07FFE0
07FFE0
07FFE0
ENDCHAR
STARTCHAR 0003
ENCODING 3
SWIDTH 586 0
DWIDTH 34 0
BBX 24 29 5 0
BITMAP
07C3E0
07C3E0
07C3E0
07C3E0
07C3E0
FFFFFF
FFFFFF
FFFFFF
FFFFFF
FFFFFF
FFFFFF
FFFFFF
FFFFFF
FFFFFF
FFFFFF
FFFFFF
FFFFFF
FFFFFF
FFFFFF
07FFE0
07FFE0
07FFE0
07FFE0
07FFE0
007C00
007C00
007C00
007C00
007C00
ENDCHAR
STARTCHAR 0004
ENCODING 4
SWIDTH 586 0
DWIDTH 34 0
BBX 24 24 5 5
BITMAP
007C00
007C00
007C00
007C00
007C00
07FFE0
07FFE0
07FFE0
07FFE0
07FFE0
FFFFFF
FFFFFF
FFFFFF
FFFFFF
FFFFFF
07FFE0
07FFE0
07FFE0
07FFE0
007C00
007C00
007C00
007C00
007C00
ENDCHAR
STARTCHAR 0005
ENCODING 5
SWIDTH 586 0
DWIDTH 34 0
BBX 24 34 5 0
BITMAP
007C00
007C00
007C00
007C00
007C00
07C3E0
07C3E0
07C3E0
07C3E0
07C3E0
F8001F
F8001F
F8001F
F8001F
F8001F
F8001F
F8001F
F8001F
F8001F
FFFFFF
07FFE0
07FFE0
07FFE0
07FFE0
007C00
007C00
007C00
007C00
007C00
07FFE0
07FFE0
07FFE0
07FFE0
07FFE0
ENDCHAR
STARTCHAR 0006
ENCODING 6
SWIDTH 586 0
DWIDTH 34 0
BBX 24 34 5 0
BITMAP
007C00
007C00
007C00
007C00
007C00
07FFE0
07FFE0
07FFE0
07FFE0
07FFE0
FFFFFF
FFFFFF
FFFFFF
FFFFFF
FFFFFF
FFFFFF
FFFFFF
FFFFFF
FFFFFF
FFFFFF
007C00
007C00
007C00
007C00
007C00
007C00
007C00
007C00
007C00
07FFE0
07FFE0
07FFE0
07FFE0
07FFE0
ENDCHAR
STARTCHAR 0007
ENCODING 7
SWIDTH 586 0
DWIDTH 34 0
BBX 5 9 14 10
BITMAP
F8
F8
F8
F8
F8
F8
F8
F8
F8
ENDCHAR
STARTCHAR 0008
ENCODING 8
SWIDTH 586 0
DWIDTH 34 0
BBX 24 44 5 -10
BITMAP
FFFFFF
FFFFFF
FFFFFF
FFFFFF
FFFFFF
FFFFFF
FFFFFF
FFFFFF
FFFFFF
FFFFFF
FFFFFF
FFFFFF
FFFFFF
FFFFFF
FFFFFF
FFC3FF
FFC3FF
FFC3FF
FFC3FF
FFC3FF
FFC3FF
FFC3FF
FFC3FF
FFC3FF
FFFFFF
FFFFFF
FFFFFF
FFFFFF
FFFFFF
FFFFFF
FFFFFF
FFFFFF
FFFFFF
FFFFFF
FFFFFF
FFFFFF
FFFFFF
FFFFFF
FFFFFF
FFFFFF
FFFFFF
FFFFFF
FFFFFF
FFFFFF
ENDCHAR
STARTCHAR 0009
ENCODING 9
SWIDTH 586 0
DWIDTH 34 0
BBX 24 24 5 0
BITMAP
07FFE0
07FFE0
07FFE0
07FFE0
07FFE0
F8001F
F8001F
F8001F
F8001F
F8001F
F8001F
F8001F
F8001F
F8001F
F8001F
F8001F
F8001F
F8001F
F8001F
07FFE0
07FFE0
07FFE0
07FFE0
07FFE0
ENDCHAR
STARTCHAR 000A
ENCODING 10
SWIDTH 586 0
DWIDTH 34 0
BBX 24 34 5 0
BITMAP
FFFFFF
FFFFFF
FFFFFF
FFFFFF
FFFFFF
FFFFFF
FFFFFF
FFFFFF
FFFFFF
FFFFFF
F803FF
F803FF
F803FF
F803FF
F803FF
00001F
00001F
00001F
00001F
00001F
00001F
00001F
00001F
00001F
F803FF
F803FF
F803FF
F803FF
F803FF
FFFFFF
FFFFFF
FFFFFF
FFFFFF
FFFFFF
ENDCHAR
STARTCHAR 000B
ENCODING 11
SWIDTH 586 0
DWIDTH 34 0
BBX 24 34 5 0
BITMAP
007FFF
007FFF
007FFF
007FFF
007FFF
007C1F
007C1F
007C1F
007C1F
007C1F
07C000
07C000
07C000
07C000
07C000
FFFFE0
FFFFE0
FFFFE0
FFFFE0
FFFFFF
F8001F
F8001F
F8001F
F8001F
F8001F
F8001F
F8001F
F8001F
F8001F
07FFE0
07FFE0
07FFE0
07FFE0
07FFE0
ENDCHAR
STARTCHAR 000C
ENCODING 12
SWIDTH 586 0
DWIDTH 34 0
BBX 24 34 5 0
BITMAP
07FFE0
07FFE0
07FFE0
07FFE0
07FFE0
F8001F
F8001F
F8001F
F8001F
F8001F
F8001F
F8001F
F8001F
F8001F
F8001F
07C3E0
07C3E0
07C3E0
07C3E0
07FFE0
007C00
007C00
007C00
007C00
FFFFFF
FFFFFF
FFFFFF
FFFFFF
FFFFFF
007C00
007C00
007C00
007C00
007C00
ENDCHAR
STARTCHAR 000D
ENCODING 13
SWIDTH 586 0
DWIDTH 34 0
BBX 24 34 5 0
BITMAP
07FFFF
07FFFF
07FFFF
07FFFF
07FFFF
07C01F
07C01F
07C01F
07C01F
07C01F
07FFFF
07FFFF
07FFFF
07FFFF
07FFFF
07C000
07C000
07C000
07C000
07C000
07C000
07C000
07C000
07C000
07C000
07C000
07C000
07C000
07C000
F80000
F80000
F80000
F80000
F80000
ENDCHAR
STARTCHAR 000E
ENCODING 14
SWIDTH 586 0
DWIDTH 34 0
BBX 24 34 5 0
BITMAP
07FFFF
07FFFF
07FFFF
07FFFF
07FFFF
07C01F
07C01F
07C01F
07C01F
07C01F
07FFFF
07FFFF
07FFFF
07FFFF
07FFFF
07C01F
07C01F
07C01F
07C01F
07C01F
07C01F
07C01F
07C01F
07C01F
07C3E0
07C3E0
07C3E0
07C3E0
07C3E0
F80000
F80000
F80000
F80000
F80000
ENDCHAR
STARTCHAR 000F
ENCODING 15
SWIDTH 586 0
DWIDTH 34 0
BBX 24 34 5 0
BITMAP
007C00
007C00
007C00
007C00
007C00
F87C1F
F87C1F
F87C1F
F87C1F
F87C1F
07C3E0
07C3E0
07C3E0
07C3E0
07C3E0
F8001F
F8001F
F8001F
F8001F
FFC3FF
07C3E0
07C3E0
07C3E0
07C3E0
F87C1F
F87C1F
F87C1F
F87C1F
F87C1F
007C00
007C00
007C00
007C00
007C00
ENDCHAR
STARTCHAR 0010
ENCODING 16
SWIDTH 586 0
DWIDTH 34 0
BBX 24 34 5 0
BITMAP
F80000
F80000
F80000
F80000
F80000
FFC000
FFC000
FFC000
FFC000
FFC000
FFFC00
FFFC00
FFFC00
FFFC00
FFFC00
FFFFFF
FFFFFF
FFFFFF
FFFFFF
FFFFFF
FFFC00
FFFC00
FFFC00
FFFC00
FFC000
FFC000
FFC000
FFC000
FFC000
F80000
F80000
F80000
F80000
F80000
ENDCHAR
STARTCHAR 0011
ENCODING 17
SWIDTH 586 0
DWIDTH 34 0
BBX 24 34 5 0
BITMAP
00001F
00001F
00001F
00001F
00001F
0003FF
0003FF
0003FF
0003FF
0003FF
007FFF
007FFF
007FFF
007FFF
007FFF
FFFFFF
FFFFFF
FFFFFF
FFFFFF
FFFFFF
007FFF
007FFF
007FFF
007FFF
0003FF
0003FF
0003FF
0003FF
0003FF
00001F
00001F
00001F
00001F
00001F
ENDCHAR
STARTCHAR 0012
ENCODING 18
SWIDTH 586 0
DWIDTH 34 0
BBX 24 34 5 0
BITMAP
007C00
007C00
007C00
007C00
007C00
07FFE0
07FFE0
07FFE0
07FFE0
07FFE0
FFFFFF
FFFFFF
FFFFFF
FFFFFF
FFFFFF
007C00
007C00
007C00
007C00
FFFFFF
FFFFFF
FFFFFF
FFFFFF
FFFFFF
07FFE0
07FFE0
07FFE0
07FFE0
07FFE0
007C00
007C00
007C00
007C00
007C00
ENDCHAR
STARTCHAR 0013
ENCODING 19
SWIDTH 586 0
DWIDTH 34 0
BBX 19 34 10 0
BITMAP
F803E0
F803E0
F803E0
F803E0
F803E0
F803E0
F803E0
F803E0
F803E0
F803E0
F803E0
F803E0
F803E0
F803E0
F803E0
F803E0
F803E0
F803E0
F803E0
F803E0
F803E0
F803E0
F803E0
F803E0
000000
000000
000000
000000
000000
F803E0
F803E0
F803E0
F803E0
F803E0
ENDCHAR
STARTCHAR 0014
ENCODING 20
SWIDTH 586 0
DWIDTH 34 0
BBX 24 34 5 0
BITMAP
07FFFF
07FFFF
07FFFF
07FFFF
07FFFF
F87C1F
F87C1F
F87C1F
F87C1F
F87C1F
F87C1F
F87C1F
F87C1F
F87C1F
F87C1F
07FFFF
07FFFF
07FFFF
07FFFF
07FFFF
007C1F
007C1F
007C1F
007C1F
007C1F
007C1F
007C1F
007C1F
007C1F
007C1F
007C1F
007C1F
007C1F
007C1F
ENDCHAR
STARTCHAR 0015
ENCODING 21
SWIDTH 586 0
DWIDTH 34 0
BBX 14 34 10 0
BITMAP
0FFC
0FFC
0FFC
0FFC
0FFC
F800
F800
F800
F800
F800
0F80
0F80
0F80
0F80
0F80
F87C
F87C
F87C
F87C
FFFC
0F80
0F80
0F80
0F80
007C
007C
007C
007C
007C
FF80
FF80
FF80
FF80
FF80
ENDCHAR
STARTCHAR 0016
ENCODING 22
SWIDTH 586 0
DWIDTH 34 0
BBX 24 10 5 5
BITMAP
FFFFFF
FFFFFF
FFFFFF
FFFFFF
FFFFFF
FFFFFF
FFFFFF
FFFFFF
FFFFFF
FFFFFF
ENDCHAR
STARTCHAR 0017
ENCODING 23
SWIDTH 586 0
DWIDTH 34 0
BBX 24 34 5 0
BITMAP
007C00
007C00
007C00
007C00
007C00
07FFE0
07FFE0
07FFE0
07FFE0
07FFE0
FFFFFF
FFFFFF
FFFFFF
FFFFFF
FFFFFF
007C00
007C00
007C00
007C00
FFFFFF
FFFFFF
FFFFFF
FFFFFF
FFFFFF
07FFE0
07FFE0
07FFE0
07FFE0
07FFE0
FFFFFF
FFFFFF
FFFFFF
FFFFFF
FFFFFF
ENDCHAR
STARTCHAR 0018
ENCODING 24
SWIDTH 586 0
DWIDTH 34 0
BBX 24 34 5 0
BITMAP
007C00
007C00
007C00
007C00
007C00
07FFE0
07FFE0
07FFE0
07FFE0
07FFE0
FFFFFF
FFFFFF
FFFFFF
FFFFFF
FFFFFF
007C00
007C00
007C00
007C00
007C00
007C00
007C00
007C00
007C00
007C00
007C00
007C00
007C00
007C00
007C00
007C00
007C00
007C00
007C00
ENDCHAR
STARTCHAR 0019
ENCODING 25
SWIDTH 586 0
DWIDTH 34 0
BBX 24 34 5 0
BITMAP
007C00
007C00
007C00
007C00
007C00
007C00
007C00
007C00
007C00
007C00
007C00
007C00
007C00
007C00
007C00
007C00
007C00
007C00
007C00
FFFFFF
FFFFFF
FFFFFF
FFFFFF
FFFFFF
07FFE0
07FFE0
07FFE0
07FFE0
07FFE0
007C00
007C00
007C00
007C00
007C00
ENDCHAR
STARTCHAR 001A
ENCODING 26
SWIDTH 586 0
DWIDTH 34 0
BBX 24 24 5 5
BITMAP
007C00
007C00
007C00
007C00
007C00
007FE0
007FE0
007FE0
007FE0
007FE0
FFFFFF
FFFFFF
FFFFFF
FFFFFF
FFFFFF
007FE0
007FE0
007FE0
007FE0
007C00
007C00
007C00
007C00
007C00
ENDCHAR
STARTCHAR 001B
ENCODING 27
SWIDTH 586 0
DWIDTH 34 0
BBX 24 24 5 5
BITMAP
007C00
007C00
007C00
007C00
007C00
07FC00
07FC00
07FC00
07FC00
07FC00
FFFFFF
FFFFFF
FFFFFF
FFFFFF
FFFFFF
07FC00
07FC00
07FC00
07FC00
007C00
007C00
007C00
007C00
007C00
ENDCHAR
STARTCHAR 001C
ENCODING 28
SWIDTH 586 0
DWIDTH 34 0
BBX 24 14 5 10
BITMAP
F80000
F80000
F80000
F80000
F80000
F80000
F80000
F80000
F80000
FFFFFF
FFFFFF
FFFFFF
FFFFFF
FFFFFF
ENDCHAR
STARTCHAR 001D
ENCODING 29
SWIDTH 586 0
DWIDTH 34 0
BBX 24 14 5 10
BITMAP
07C3E0
07C3E0
07C3E0
07C3E0
07C3E0
FFFFFF
FFFFFF
FFFFFF
FFFFFF
FFFFFF
07C3E0
07C3E0
07C3E0
07C3E0
ENDCHAR
STARTCHAR 001E
ENCODING 30
SWIDTH 586 0
DWIDTH 34 0
BBX 24 19 5 0
BITMAP
007C00
007C00
007C00
007C00
07FFE0
07FFE0
07FFE0
07FFE0
07FFE0
FFFFFF
FFFFFF
FFFFFF
FFFFFF
FFFFFF
FFFFFF
FFFFFF
FFFFFF
FFFFFF
FFFFFF
ENDCHAR
STARTCHAR 001F
ENCODING 31
SWIDTH 586 0
DWIDTH 34 0
BBX 24 19 5 0
BITMAP
FFFFFF
FFFFFF
FFFFFF
FFFFFF
FFFFFF
FFFFFF
FFFFFF
FFFFFF
FFFFFF
07FFE0
07FFE0
07FFE0
07FFE0
07FFE0
007C00
007C00
007C00
007C00
007C00
ENDCHAR
STARTCHAR 0020
ENCODING 32
SWIDTH 586 0
DWIDTH 34 0
BBX 0 0 0 0
BITMAP
ENDCHAR
STARTCHAR 0021
ENCODING 33
SWIDTH 586 0
DWIDTH 34 0
BBX 14 34 10 0
BITMAP
0F80
0F80
0F80
0F80
0F80
FFFC
FFFC
FFFC
FFFC
FFFC
FFFC
FFFC
FFFC
FFFC
FFFC
FFFC
FFFC
FFFC
FFFC
FFFC
0F80
0F80
0F80
0F80
0000
0000
0000
0000
0000
0F80
0F80
0F80
0F80
0F80
ENDCHAR
STARTCHAR 0022
ENCODING 34
SWIDTH 586 0
DWIDTH 34 0
BBX 24 24 5 5
BITMAP
07C3E0
07C3E0
07C3E0
07C3E0
07C3E0
FFC3FF
FFC3FF
FFC3FF
FFC3FF
FFC3FF
FFC3FF
FFC3FF
FFC3FF
FFC3FF
FFC3FF
07C3E0
07C3E0
07C3E0
07C3E0
07C3E0
07C3E0
07C3E0
07C3E0
07C3E0
ENDCHAR
STARTCHAR 0023
ENCODING 35
SWIDTH 586 0
DWIDTH 34 0
BBX 24 34 5 0
BITMAP
07C3E0
07C3E0
07C3E0
07C3E0
07C3E0
07C3E0
07C3E0
07C3E0
07C3E0
07C3E0
FFFFFF
FFFFFF
FFFFFF
FFFFFF
FFFFFF
07C3E0
07C3E0
07C3E0
07C3E0
FFFFFF
FFFFFF
FFFFFF
FFFFFF
FFFFFF
07C3E0
07C3E0
07C3E0
07C3E0
07C3E0
07C3E0
07C3E0
07C3E0
07C3E0
07C3E0
ENDCHAR
STARTCHAR 0024
ENCODING 36
SWIDTH 586 0
DWIDTH 34 0
BBX 24 44 5 -10
BITMAP
007C00
007C00
007C00
007C00
007C00
07FFE0
07FFE0
07FFE0
07FFE0
07FFE0
F87C1F
F87C1F
F87C1F
F87C1F
F87C1F
F80000
F80000
F80000
F80000
FFFFE0
07FFE0
07FFE0
07FFE0
07FFE0
00001F
00001F
00001F
00001F
00001F
F87C1F
F87C1F
F87C1F
F87C1F
F87C1F
07FFE0
07FFE0
07FFE0
07FFE0
07FFE0
007C00
007C00
007C00
007C00
007C00
ENDCHAR
STARTCHAR 0025
ENCODING 37
SWIDTH 586 0
DWIDTH 34 0
BBX 24 24 5 0
BITMAP
F8001F
F8001F
F8001F
F8001F
F8001F
0003E0
0003E0
0003E0
0003E0
007FE0
007C00
007C00
007C00
007C00
07C000
07C000
07C000
07C000
07C000
F8001F
F8001F
F8001F
F8001F
F8001F
ENDCHAR
STARTCHAR 0026
ENCODING 38
SWIDTH 586 0
DWIDTH 34 0
BBX 24 34 5 0
BITMAP
07FC00
07FC00
07FC00
07FC00
07FC00
F803E0
F803E0
F803E0
F803E0
F803E0
07FC00
07FC00
07FC00
07FC00
07FC00
F803FF
F803FF
F803FF
F803FF
F803FF
F803E0
F803E0
F803E0
F803E0
F803E0
F803E0
F803E0
F803E0
F803E0
07FC1F
07FC1F
07FC1F
07FC1F
07FC1F
ENDCHAR
STARTCHAR 0027
ENCODING 39
SWIDTH 586 0
DWIDTH 34 0
BBX 10 20 14 14
BITMAP
07C0
07C0
07C0
07C0
07C0
07C0
07C0
07C0
07C0
07C0
07C0
07C0
07C0
07C0
07C0
F800
F800
F800
F800
F800
ENDCHAR
STARTCHAR 0028
ENCODING 40
SWIDTH 586 0
DWIDTH 34 0
BBX 14 34 10 0
BITMAP
007C
007C
007C
007C
007C
0F80
0F80
0F80
0F80
0F80
F800
F800
F800
F800
F800
F800
F800
F800
F800
F800
F800
F800
F800
F800
0F80
0F80
0F80
0F80
0F80
007C
007C
007C
007C
007C
ENDCHAR
STARTCHAR 0029
ENCODING 41
SWIDTH 586 0
DWIDTH 34 0
BBX 14 34 10 0
BITMAP
F800
F800
F800
F800
F800
0F80
0F80
0F80
0F80
0F80
007C
007C
007C
007C
007C
007C
007C
007C
007C
007C
007C
007C
007C
007C
0F80
0F80
0F80
0F80
0F80
F800
F800
F800
F800
F800
ENDCHAR
STARTCHAR 002A
ENCODING 42
SWIDTH 586 0
DWIDTH 34 0
BBX 19 24 5 0
BITMAP
F803E0
F803E0
F803E0
F803E0
F803E0
07FC00
07FC00
07FC00
07FC00
FFFFE0
FFFFE0
FFFFE0
FFFFE0
FFFFE0
07FC00
07FC00
07FC00
07FC00
07FC00
F803E0
F803E0
F803E0
F803E0
F803E0
ENDCHAR
STARTCHAR 002B
ENCODING 43
SWIDTH 586 0
DWIDTH 34 0
BBX 24 24 5 0
BITMAP
007C00
007C00
007C00
007C00
007C00
007C00
007C00
007C00
007C00
FFFFFF
FFFFFF
FFFFFF
FFFFFF
FFFFFF
007C00
007C00
007C00
007C00
007C00
007C00
007C00
007C00
007C00
007C00
ENDCHAR
STARTCHAR 002C
ENCODING 44
SWIDTH 586 0
DWIDTH 34 0
BBX 15 15 14 -5
BITMAP
07FE
07FE
07FE
07FE
07FE
07FE
07FE
07FE
07FE
07FE
FFC0
FFC0
FFC0
FFC0
FFC0
ENDCHAR
STARTCHAR 002D
ENCODING 45
SWIDTH 586 0
DWIDTH 34 0
BBX 24 5 5 14
BITMAP
FFFFFF
FFFFFF
FFFFFF
FFFFFF
FFFFFF
ENDCHAR
STARTCHAR 002E
ENCODING 46
SWIDTH 586 0
DWIDTH 34 0
BBX 5 10 24 0
BITMAP
F8
F8
F8
F8
F8
F8
F8
F8
F8
F8
ENDCHAR
STARTCHAR 002F
ENCODING 47
SWIDTH 586 0
DWIDTH 34 0
BBX 24 24 5 0
BITMAP
00001F
00001F
00001F
00001F
00001F
0003E0
0003E0
0003E0
0003E0
007FE0
007C00
007C00
007C00
007C00
07C000
07C000
07C000
07C000
07C000
F80000
F80000
F80000
F80000
F80000
ENDCHAR
STARTCHAR 0030
ENCODING 48
SWIDTH 586 0
DWIDTH 34 0
BBX 24 34 5 0
BITMAP
07FFE0
07FFE0
07FFE0
07FFE0
07FFE0
F8001F
F8001F
F8001F
F8001F
F8001F
F8001F
F8001F
F8001F
F8001F
F8001F
F87C1F
F87C1F
F87C1F
F87C1F
F87C1F
F8001F
F8001F
F8001F
F8001F
F8001F
F8001F
F8001F
F8001F
F8001F
07FFE0
07FFE0
07FFE0
07FFE0
07FFE0
ENDCHAR
STARTCHAR 0031
ENCODING 49
SWIDTH 586 0
DWIDTH 34 0
BBX 19 34 10 0
BITMAP
007C00
007C00
007C00
007C00
007C00
0FFC00
0FFC00
0FFC00
0FFC00
0FFC00
F87C00
F87C00
F87C00
F87C00
F87C00
007C00
007C00
007C00
007C00
007C00
007C00
007C00
007C00
007C00
007C00
007C00
007C00
007C00
007C00
0FFFE0
0FFFE0
0FFFE0
0FFFE0
0FFFE0
ENDCHAR
STARTCHAR 0032
ENCODING 50
SWIDTH 586 0
DWIDTH 34 0
BBX 24 34 5 0
BITMAP
07FFE0
07FFE0
07FFE0
07FFE0
07FFE0
F8001F
F8001F
F8001F
F8001F
F8001F
00001F
00001F
00001F
00001F
00001F
0003E0
0003E0
0003E0
0003E0
007FE0
007C00
007C00
007C00
007C00
07C000
07C000
07C000
07C000
07C000
FFFFFF
FFFFFF
FFFFFF
FFFFFF
FFFFFF
ENDCHAR
STARTCHAR 0033
ENCODING 51
SWIDTH 586 0
DWIDTH 34 0
BBX 24 34 5 0
BITMAP
07FFE0
07FFE0
07FFE0
07FFE0
07FFE0
F8001F
F8001F
F8001F
F8001F
F8001F
00001F
00001F
00001F
00001F
00001F
007FE0
007FE0
007FE0
007FE0
007FFF
00001F
00001F
00001F
00001F
F8001F
F8001F
F8001F
F8001F
F8001F
07FFE0
07FFE0
07FFE0
07FFE0
07FFE0
ENDCHAR
STARTCHAR 0034
ENCODING 52
SWIDTH 586 0
DWIDTH 34 0
BBX 24 34 5 0
BITMAP
0003E0
0003E0
0003E0
0003E0
0003E0
007FE0
007FE0
007FE0
007FE0
007FE0
07C3E0
07C3E0
07C3E0
07C3E0
07C3E0
FFFFE0
FFFFE0
FFFFE0
FFFFE0
FFFFE0
0003E0
0003E0
0003E0
0003E0
0003E0
0003E0
0003E0
0003E0
0003E0
007FFF
007FFF
007FFF
007FFF
007FFF
ENDCHAR
STARTCHAR 0035
ENCODING 53
SWIDTH 586 0
DWIDTH 34 0
BBX 24 34 5 0
BITMAP
FFFFFF
FFFFFF
FFFFFF
FFFFFF
FFFFFF
F80000
F80000
F80000
F80000
F80000
F80000
F80000
F80000
F80000
F80000
FFFFE0
FFFFE0
FFFFE0
FFFFE0
FFFFFF
00001F
00001F
00001F
00001F
F8001F
F8001F
F8001F
F8001F
F8001F
07FFE0
07FFE0
07FFE0
07FFE0
07FFE0
ENDCHAR
STARTCHAR 0036
ENCODING 54
SWIDTH 586 0
DWIDTH 34 0
BBX 24 34 5 0
BITMAP
07FFE0
07FFE0
07FFE0
07FFE0
07FFE0
F80000
F80000
F80000
F80000
F80000
F80000
F80000
F80000
F80000
F80000
FFFFE0
FFFFE0
FFFFE0
FFFFE0
FFFFFF
F8001F
F8001F
F8001F
F8001F
F8001F
F8001F
F8001F
F8001F
F8001F
07FFE0
07FFE0
07FFE0
07FFE0
07FFE0
ENDCHAR
STARTCHAR 0037
ENCODING 55
SWIDTH 586 0
DWIDTH 34 0
BBX 24 34 5 0
BITMAP
FFFFFF
FFFFFF
FFFFFF
FFFFFF
FFFFFF
F8001F
F8001F
F8001F
F8001F
F8001F
00001F
00001F
00001F
00001F
00001F
0003E0
0003E0
0003E0
0003E0
007FE0
007C00
007C00
007C00
007C00
007C00
007C00
007C00
007C00
007C00
007C00
007C00
007C00
007C00
007C00
ENDCHAR
STARTCHAR 0038
ENCODING 56
SWIDTH 586 0
DWIDTH 34 0
BBX 24 34 5 0
BITMAP
07FFE0
07FFE0
07FFE0
07FFE0
07FFE0
F8001F
F8001F
F8001F
F8001F
F8001F
F8001F
F8001F
F8001F
F8001F
F8001F
07FFE0
07FFE0
07FFE0
07FFE0
FFFFFF
F8001F
F8001F
F8001F
F8001F
F8001F
F8001F
F8001F
F8001F
F8001F
07FFE0
07FFE0
07FFE0
07FFE0
07FFE0
ENDCHAR
STARTCHAR 0039
ENCODING 57
SWIDTH 586 0
DWIDTH 34 0
BBX 24 34 5 0
BITMAP
07FFE0
07FFE0
07FFE0
07FFE0
07FFE0
F8001F
F8001F
F8001F
F8001F
F8001F
F8001F
F8001F
F8001F
F8001F
F8001F
07FFFF
07FFFF
07FFFF
07FFFF
07FFFF
00001F
00001F
00001F
00001F
00001F
00001F
00001F
00001F
00001F
07FFE0
07FFE0
07FFE0
07FFE0
07FFE0
ENDCHAR
STARTCHAR 003A
ENCODING 58
SWIDTH 586 0
DWIDTH 34 0
BBX 5 24 14 5
BITMAP
F8
F8
F8
F8
F8
00
00
00
00
00
00
00
00
00
00
00
00
00
00
F8
F8
F8
F8
F8
ENDCHAR
STARTCHAR 003B
ENCODING 59
SWIDTH 586 0
DWIDTH 34 0
BBX 10 29 14 0
BITMAP
07C0
07C0
07C0
07C0
07C0
0000
0000
0000
0000
0000
0000
0000
0000
0000
07C0
07C0
07C0
07C0
07C0
07C0
07C0
07C0
07C0
07C0
F800
F800
F800
F800
F800
ENDCHAR
STARTCHAR 003C
ENCODING 60
SWIDTH 586 0
DWIDTH 34 0
BBX 19 34 5 0
BITMAP
0003E0
0003E0
0003E0
0003E0
0003E0
007C00
007C00
007C00
007C00
007C00
07C000
07C000
07C000
07C000
07C000
F80000
F80000
F80000
F80000
FFC000
07C000
07C000
07C000
07C000
007C00
007C00
007C00
007C00
007C00
0003E0
0003E0
0003E0
0003E0
0003E0
ENDCHAR
STARTCHAR 003D
ENCODING 61
SWIDTH 586 0
DWIDTH 34 0
BBX 24 14 5 10
BITMAP
FFFFFF
FFFFFF
FFFFFF
FFFFFF
FFFFFF
000000
000000
000000
000000
FFFFFF
FFFFFF
FFFFFF
FFFFFF
FFFFFF
ENDCHAR
STARTCHAR 003E
ENCODING 62
SWIDTH 586 0
DWIDTH 34 0
BBX 19 34 5 0
BITMAP
F80000
F80000
F80000
F80000
F80000
07C000
07C000
07C000
07C000
07C000
007C00
007C00
007C00
007C00
007C00
0003E0
0003E0
0003E0
0003E0
007FE0
007C00
007C00
007C00
007C00
07C000
07C000
07C000
07C000
07C000
F80000
F80000
F80000
F80000
F80000
ENDCHAR
STARTCHAR 003F
ENCODING 63
SWIDTH 586 0
DWIDTH 34 0
BBX 24 34 5 0
BITMAP
07FFE0
07FFE0
07FFE0
07FFE0
07FFE0
F8001F
F8001F
F8001F
F8001F
F8001F
00001F
00001F
00001F
00001F
00001F
0003E0
0003E0
0003E0
0003E0
007FE0
007C00
007C00
007C00
007C00
000000
000000
000000
000000
000000
007C00
007C00
007C00
007C00
007C00
ENDCHAR
STARTCHAR 0040
ENCODING 64
SWIDTH 586 0
DWIDTH 34 0
BBX 24 34 5 0
BITMAP
07FFE0
07FFE0
07FFE0
07FFE0
07FFE0
F8001F
F8001F
F8001F
F8001F
F8001F
F87FFF
F87FFF
F87FFF
F87FFF
F87FFF
F87FFF
F87FFF
F87FFF
F87FFF
F87FFF
F87FE0
F87FE0
F87FE0
F87FE0
F80000
F80000
F80000
F80000
F80000
07FFE0
07FFE0
07FFE0
07FFE0
07FFE0
ENDCHAR
STARTCHAR 0041
ENCODING 65
SWIDTH 586 0
DWIDTH 34 0
BBX 24 34 5 0
BITMAP
007C00
007C00
007C00
007C00
007C00
07C3E0
07C3E0
07C3E0
07C3E0
07C3E0
F8001F
F8001F
F8001F
F8001F
F8001F
F8001F
F8001F
F8001F
F8001F
FFFFFF
FFFFFF
FFFFFF
FFFFFF
FFFFFF
F8001F
F8001F
F8001F
F8001F
F8001F
F8001F
F8001F
F8001F
F8001F
F8001F
ENDCHAR
STARTCHAR 0042
ENCODING 66
SWIDTH 586 0
DWIDTH 34 0
BBX 24 34 5 0
BITMAP
FFFFE0
FFFFE0
FFFFE0
FFFFE0
FFFFE0
F8001F
F8001F
F8001F
F8001F
F8001F
F8001F
F8001F
F8001F
F8001F
F8001F
FFFFE0
FFFFE0
FFFFE0
FFFFE0
FFFFFF
F8001F
F8001F
F8001F
F8001F
F8001F
F8001F
F8001F
F8001F
F8001F
FFFFE0
FFFFE0
FFFFE0
FFFFE0
FFFFE0
ENDCHAR
STARTCHAR 0043
ENCODING 67
SWIDTH 586 0
DWIDTH 34 0
BBX 24 34 5 0
BITMAP
07FFE0
07FFE0
07FFE0
07FFE0
07FFE0
F8001F
F8001F
F8001F
F8001F
F8001F
F80000
F80000
F80000
F80000
F80000
F80000
F80000
F80000
F80000
F80000
F80000
F80000
F80000
F80000
F8001F
F8001F
F8001F
F8001F
F8001F
07FFE0
07FFE0
07FFE0
07FFE0
07FFE0
ENDCHAR
STARTCHAR 0044
ENCODING 68
SWIDTH 586 0
DWIDTH 34 0
BBX 24 34 5 0
BITMAP
FFFFE0
FFFFE0
FFFFE0
FFFFE0
FFFFE0
F8001F
F8001F
F8001F
F8001F
F8001F
F8001F
F8001F
F8001F
F8001F
F8001F
F8001F
F8001F
F8001F
F8001F
F8001F
F8001F
F8001F
F8001F
F8001F
F8001F
F8001F
F8001F
F8001F
F8001F
FFFFE0
FFFFE0
FFFFE0
FFFFE0
FFFFE0
ENDCHAR
STARTCHAR 0045
ENCODING 69
SWIDTH 586 0
DWIDTH 34 0
BBX 24 34 5 0
BITMAP
FFFFFF
FFFFFF
FFFFFF
FFFFFF
FFFFFF
F80000
F80000
F80000
F80000
F80000
F80000
F80000
F80000
F80000
F80000
FFFFE0
FFFFE0
FFFFE0
FFFFE0
FFFFE0
F80000
F80000
F80000
F80000
F80000
F80000
F80000
F80000
F80000
FFFFFF
FFFFFF
FFFFFF
FFFFFF
FFFFFF
ENDCHAR
STARTCHAR 0046
ENCODING 70
SWIDTH 586 0
DWIDTH 34 0
BBX 24 34 5 0
BITMAP
FFFFFF
FFFFFF
FFFFFF
FFFFFF
FFFFFF
F80000
F80000
F80000
F80000
F80000
F80000
F80000
F80000
F80000
F80000
FFFC00
FFFC00
FFFC00
FFFC00
FFFC00
F80000
F80000
F80000
F80000
F80000
F80000
F80000
F80000
F80000
F80000
F80000
F80000
F80000
F80000
ENDCHAR
STARTCHAR 0047
ENCODING 71
SWIDTH 586 0
DWIDTH 34 0
BBX 24 34 5 0
BITMAP
07FFE0
07FFE0
07FFE0
07FFE0
07FFE0
F8001F
F8001F
F8001F
F8001F
F8001F
F80000
F80000
F80000
F80000
F80000
F803FF
F803FF
F803FF
F803FF
F803FF
F8001F
F8001F
F8001F
F8001F
F8001F
F8001F
F8001F
F8001F
F8001F
07FFE0
07FFE0
07FFE0
07FFE0
07FFE0
ENDCHAR
STARTCHAR 0048
ENCODING 72
SWIDTH 586 0
DWIDTH 34 0
BBX 24 34 5 0
BITMAP
F8001F
F8001F
F8001F
F8001F
F8001F
F8001F
F8001F
F8001F
F8001F
F8001F
F8001F
F8001F
F8001F
F8001F
F8001F
FFFFFF
FFFFFF
FFFFFF
FFFFFF
FFFFFF
F8001F
F8001F
F8001F
F8001F
F8001F
F8001F
F8001F
F8001F
F8001F
F8001F
F8001F
F8001F
F8001F
F8001F
ENDCHAR
STARTCHAR 0049
ENCODING 73
SWIDTH 586 0
DWIDTH 34 0
BBX 14 34 10 0
BITMAP
FFFC
FFFC
FFFC
FFFC
FFFC
0F80
0F80
0F80
0F80
0F80
0F80
0F80
0F80
0F80
0F80
0F80
0F80
0F80
0F80
0F80
0F80
0F80
0F80
0F80
0F80
0F80
0F80
0F80
0F80
FFFC
FFFC
FFFC
FFFC
FFFC
ENDCHAR
STARTCHAR 004A
ENCODING 74
SWIDTH 586 0
DWIDTH 34 0
BBX 24 34 5 0
BITMAP
007FFF
007FFF
007FFF
007FFF
007FFF
0003E0
0003E0
0003E0
0003E0
0003E0
0003E0
0003E0
0003E0
0003E0
0003E0
0003E0
0003E0
0003E0
0003E0
0003E0
0003E0
0003E0
0003E0
0003E0
F803E0
F803E0
F803E0
F803E0
F803E0
07FC00
07FC00
07FC00
07FC00
07FC00
ENDCHAR
STARTCHAR 004B
ENCODING 75
SWIDTH 586 0
DWIDTH 34 0
BBX 24 34 5 0
BITMAP
F8001F
F8001F
F8001F
F8001F
F8001F
F803E0
F803E0
F803E0
F803E0
F803E0
F87C00
F87C00
F87C00
F87C00
F87C00
FFC000
FFC000
FFC000
FFC000
FFFC00
F87C00
F87C00
F87C00
F87C00
F803E0
F803E0
F803E0
F803E0
F803E0
F8001F
F8001F
F8001F
F8001F
F8001F
ENDCHAR
STARTCHAR 004C
ENCODING 76
SWIDTH 586 0
DWIDTH 34 0
BBX 24 34 5 0
BITMAP
F80000
F80000
F80000
F80000
F80000
F80000
F80000
F80000
F80000
F80000
F80000
F80000
F80000
F80000
F80000
F80000
F80000
F80000
F80000
F80000
F80000
F80000
F80000
F80000
F8001F
F8001F
F8001F
F8001F
F8001F
FFFFFF
FFFFFF
FFFFFF
FFFFFF
FFFFFF
ENDCHAR
STARTCHAR 004D
ENCODING 77
SWIDTH 586 0
DWIDTH 34 0
BBX 24 34 5 0
BITMAP
F8001F
F8001F
F8001F
F8001F
F8001F
FFC3FF
FFC3FF
FFC3FF
FFC3FF
FFC3FF
F87C1F
F87C1F
F87C1F
F87C1F
F87C1F
F87C1F
F87C1F
F87C1F
F87C1F
F87C1F
F8001F
F8001F
F8001F
F8001F
F8001F
F8001F
F8001F
F8001F
F8001F
F8001F
F8001F
F8001F
F8001F
F8001F
ENDCHAR
STARTCHAR 004E
ENCODING 78
SWIDTH 586 0
DWIDTH 34 0
BBX 24 34 5 0
BITMAP
F8001F
F8001F
F8001F
F8001F
F8001F
FFC01F
FFC01F
FFC01F
FFC01F
FFC01F
F87C1F
F87C1F
F87C1F
F87C1F
F87C1F
F803FF
F803FF
F803FF
F803FF
F803FF
F8001F
F8001F
F8001F
F8001F
F8001F
F8001F
F8001F
F8001F
F8001F
F8001F
F8001F
F8001F
F8001F
F8001F
ENDCHAR
STARTCHAR 004F
ENCODING 79
SWIDTH 586 0
DWIDTH 34 0
BBX 24 34 5 0
BITMAP
007C00
007C00
007C00
007C00
007C00
07C3E0
07C3E0
07C3E0
07C3E0
07C3E0
F8001F
F8001F
F8001F
F8001F
F8001F
F8001F
F8001F
F8001F
F8001F
F8001F
F8001F
F8001F
F8001F
F8001F
07C3E0
07C3E0
07C3E0
07C3E0
07C3E0
007C00
007C00
007C00
007C00
007C00
ENDCHAR
STARTCHAR 0050
ENCODING 80
SWIDTH 586 0
DWIDTH 34 0
BBX 24 34 5 0
BITMAP
FFFFE0
FFFFE0
FFFFE0
FFFFE0
FFFFE0
07C01F
07C01F
07C01F
07C01F
07C01F
07C01F
07C01F
07C01F
07C01F
07C01F
07FFE0
07FFE0
07FFE0
07FFE0
07FFE0
07C000
07C000
07C000
07C000
07C000
07C000
07C000
07C000
07C000
FFFC00
FFFC00
FFFC00
FFFC00
FFFC00
ENDCHAR
STARTCHAR 0051
ENCODING 81
SWIDTH 586 0
DWIDTH 34 0
BBX 24 39 5 -5
BITMAP
07FFE0
07FFE0
07FFE0
07FFE0
07FFE0
F8001F
F8001F
F8001F
F8001F
F8001F
F8001F
F8001F
F8001F
F8001F
F8001F
F8001F
F8001F
F8001F
F8001F
F8001F
F8001F
F8001F
F8001F
F8001F
F87C1F
F87C1F
F87C1F
F87C1F
F87C1F
07FFE0
07FFE0
07FFE0
07FFE0
07FFE0
0003FF
0003FF
0003FF
0003FF
0003FF
ENDCHAR
STARTCHAR 0052
ENCODING 82
SWIDTH 586 0
DWIDTH 34 0
BBX 24 34 5 0
BITMAP
FFFFE0
FFFFE0
FFFFE0
FFFFE0
FFFFE0
F8001F
F8001F
F8001F
F8001F
F8001F
F8001F
F8001F
F8001F
F8001F
F8001F
FFFFE0
FFFFE0
FFFFE0
FFFFE0
FFFFE0
F87C00
F87C00
F87C00
F87C00
F803E0
F803E0
F803E0
F803E0
F803E0
F8001F
F8001F
F8001F
F8001F
F8001F
ENDCHAR
STARTCHAR 0053
ENCODING 83
SWIDTH 586 0
DWIDTH 34 0
BBX 24 34 5 0
BITMAP
07FFE0
07FFE0
07FFE0
07FFE0
07FFE0
F8001F
F8001F
F8001F
F8001F
F8001F
07C000
07C000
07C000
07C000
07C000
007C00
007C00
007C00
007C00
007FE0
0003E0
0003E0
0003E0
0003E0
F8001F
F8001F
F8001F
F8001F
F8001F
07FFE0
07FFE0
07FFE0
07FFE0
07FFE0
ENDCHAR
STARTCHAR 0054
ENCODING 84
SWIDTH 586 0
DWIDTH 34 0
BBX 24 34 5 0
BITMAP
FFFFFF
FFFFFF
FFFFFF
FFFFFF
FFFFFF
F87C1F
F87C1F
F87C1F
F87C1F
F87C1F
007C00
007C00
007C00
007C00
007C00
007C00
007C00
007C00
007C00
007C00
007C00
007C00
007C00
007C00
007C00
007C00
007C00
007C00
007C00
07FFE0
07FFE0
07FFE0
07FFE0
07FFE0
ENDCHAR
STARTCHAR 0055
ENCODING 85
SWIDTH 586 0
DWIDTH 34 0
BBX 24 34 5 0
BITMAP
F8001F
F8001F
F8001F
F8001F
F8001F
F8001F
F8001F
F8001F
F8001F
F8001F
F8001F
F8001F
F8001F
F8001F
F8001F
F8001F
F8001F
F8001F
F8001F
F8001F
F8001F
F8001F
F8001F
F8001F
F8001F
F8001F
F8001F
F8001F
F8001F
07FFE0
07FFE0
07FFE0
07FFE0
07FFE0
ENDCHAR
STARTCHAR 0056
ENCODING 86
SWIDTH 586 0
DWIDTH 34 0
BBX 24 34 5 0
BITMAP
F8001F
F8001F
F8001F
F8001F
F8001F
F8001F
F8001F
F8001F
F8001F
F8001F
F8001F
F8001F
F8001F
F8001F
F8001F
F8001F
F8001F
F8001F
F8001F
F8001F
F8001F
F8001F
F8001F
F8001F
07C3E0
07C3E0
07C3E0
07C3E0
07C3E0
007C00
007C00
007C00
007C00
007C00
ENDCHAR
STARTCHAR 0057
ENCODING 87
SWIDTH 586 0
DWIDTH 34 0
BBX 24 34 5 0
BITMAP
F8001F
F8001F
F8001F
F8001F
F8001F
F8001F
F8001F
F8001F
F8001F
F8001F
F8001F
F8001F
F8001F
F8001F
F8001F
F8001F
F8001F
F8001F
F8001F
F87C1F
F87C1F
F87C1F
F87C1F
F87C1F
F87C1F
F87C1F
F87C1F
F87C1F
F87C1F
07C3E0
07C3E0
07C3E0
07C3E0
07C3E0
ENDCHAR
STARTCHAR 0058
ENCODING 88
SWIDTH 586 0
DWIDTH 34 0
BBX 24 34 5 0
BITMAP
F8001F
F8001F
F8001F
F8001F
F8001F
F8001F
F8001F
F8001F
F8001F
F8001F
07C3E0
07C3E0
07C3E0
07C3E0
07C3E0
007C00
007C00
007C00
007C00
07FFE0
07C3E0
07C3E0
07C3E0
07C3E0
F8001F
F8001F
F8001F
F8001F
F8001F
F8001F
F8001F
F8001F
F8001F
F8001F
ENDCHAR
STARTCHAR 0059
ENCODING 89
SWIDTH 586 0
DWIDTH 34 0
BBX 24 34 5 0
BITMAP
F8001F
F8001F
F8001F
F8001F
F8001F
F8001F
F8001F
F8001F
F8001F
F8001F
F8001F
F8001F
F8001F
F8001F
F8001F
07C3E0
07C3E0
07C3E0
07C3E0
07FFE0
007C00
007C00
007C00
007C00
007C00
007C00
007C00
007C00
007C00
07FFE0
07FFE0
07FFE0
07FFE0
07FFE0
ENDCHAR
STARTCHAR 005A
ENCODING 90
SWIDTH 586 0
DWIDTH 34 0
BBX 24 34 5 0
BITMAP
FFFFFF
FFFFFF
FFFFFF
FFFFFF
FFFFFF
F8001F
F8001F
F8001F
F8001F
F8001F
0003E0
0003E0
0003E0
0003E0
0003E0
007C00
007C00
007C00
007C00
07FC00
07C000
07C000
07C000
07C000
F8001F
F8001F
F8001F
F8001F
F8001F
FFFFFF
FFFFFF
FFFFFF
FFFFFF
FFFFFF
ENDCHAR
STARTCHAR 005B
ENCODING 91
SWIDTH 586 0
DWIDTH 34 0
BBX 14 34 10 0
BITMAP
FFFC
FFFC
FFFC
FFFC
FFFC
F800
F800
F800
F800
F800
F800
F800
F800
F800
F800
F800
F800
F800
F800
F800
F800
F800
F800
F800
F800
F800
F800
F800
F800
FFFC
FFFC
FFFC
FFFC
FFFC
ENDCHAR
STARTCHAR 005C
ENCODING 92
SWIDTH 586 0
DWIDTH 34 0
BBX 24 24 5 5
BITMAP
F80000
F80000
F80000
F80000
F80000
07C000
07C000
07C000
07C000
07C000
007C00
007C00
007C00
007C00
007FE0
0003E0
0003E0
0003E0
0003E0
00001F
00001F
00001F
00001F
00001F
ENDCHAR
STARTCHAR 005D
ENCODING 93
SWIDTH 586 0
DWIDTH 34 0
BBX 14 34 10 0
BITMAP
FFFC
FFFC
FFFC
FFFC
FFFC
007C
007C
007C
007C
007C
007C
007C
007C
007C
007C
007C
007C
007C
007C
007C
007C
007C
007C
007C
007C
007C
007C
007C
007C
FFFC
FFFC
FFFC
FFFC
FFFC
ENDCHAR
STARTCHAR 005E
ENCODING 94
SWIDTH 586 0
DWIDTH 34 0
BBX 24 15 5 19
BITMAP
007C00
007C00
007C00
007C00
007C00
07C3E0
07C3E0
07C3E0
07C3E0
07C3E0
F8001F
F8001F
F8001F
F8001F
F8001F
ENDCHAR
STARTCHAR 005F
ENCODING 95
SWIDTH 586 0
DWIDTH 34 0
BBX 24 5 5 0
BITMAP
FFFFFF
FFFFFF
FFFFFF
FFFFFF
FFFFFF
ENDCHAR
STARTCHAR 0060
ENCODING 96
SWIDTH 586 0
DWIDTH 34 0
BBX 9 15 10 19
BITMAP
F800
F800
F800
F800
F800
F800
F800
F800
F800
F800
0F80
0F80
0F80
0F80
0F80
ENDCHAR
STARTCHAR 0061
ENCODING 97
SWIDTH 586 0
DWIDTH 34 0
BBX 29 24 5 0
BITMAP
07FFE000
07FFE000
07FFE000
07FFE000
07FFE000
00001F00
00001F00
00001F00
00001F00
07FFFF00
07FFFF00
07FFFF00
07FFFF00
07FFFF00
F8001F00
F8001F00
F8001F00
F8001F00
F8001F00
07FFE0F8
07FFE0F8
07FFE0F8
07FFE0F8
07FFE0F8
ENDCHAR
STARTCHAR 0062
ENCODING 98
SWIDTH 586 0
DWIDTH 34 0
BBX 24 34 5 0
BITMAP
FFC000
FFC000
FFC000
FFC000
FFC000
07C000
07C000
07C000
07C000
07C000
07C000
07C000
07C000
07C000
07C000
07FFE0
07FFE0
07FFE0
07FFE0
07FFFF
07C01F
07C01F
07C01F
07C01F
07C01F
07C01F
07C01F
07C01F
07C01F
07FFE0
07FFE0
07FFE0
07FFE0
07FFE0
ENDCHAR
STARTCHAR 0063
ENCODING 99
SWIDTH 586 0
DWIDTH 34 0
BBX 24 24 5 0
BITMAP
07FFE0
07FFE0
07FFE0
07FFE0
07FFE0
F8001F
F8001F
F8001F
F8001F
F8001F
F80000
F80000
F80000
F80000
F8001F
F8001F
F8001F
F8001F
F8001F
07FFE0
07FFE0
07FFE0
07FFE0
07FFE0
ENDCHAR
STARTCHAR 0064
ENCODING 100
SWIDTH 586 0
DWIDTH 34 0
BBX 24 34 5 0
BITMAP
007FE0
007FE0
007FE0
007FE0
007FE0
0003E0
0003E0
0003E0
0003E0
0003E0
0003E0
0003E0
0003E0
0003E0
0003E0
07FFE0
07FFE0
07FFE0
07FFE0
FFFFE0
F803E0
F803E0
F803E0
F803E0
F803E0
F803E0
F803E0
F803E0
F803E0
07FC1F
07FC1F
07FC1F
07FC1F
07FC1F
ENDCHAR
STARTCHAR 0065
ENCODING 101
SWIDTH 586 0
DWIDTH 34 0
BBX 24 24 5 0
BITMAP
07FFE0
07FFE0
07FFE0
07FFE0
07FFE0
F8001F
F8001F
F8001F
F8001F
FFFFFF
FFFFFF
FFFFFF
FFFFFF
FFFFFF
F80000
F80000
F80000
F80000
F80000
07FFE0
07FFE0
07FFE0
07FFE0
07FFE0
ENDCHAR
STARTCHAR 0066
ENCODING 102
SWIDTH 586 0
DWIDTH 34 0
BBX 24 34 5 0
BITMAP
007FE0
007FE0
007FE0
007FE0
007FE0
07C01F
07C01F
07C01F
07C01F
07C01F
07C000
07C000
07C000
07C000
07C000
FFFC00
FFFC00
FFFC00
FFFC00
FFFC00
07C000
07C000
07C000
07C000
07C000
07C000
07C000
07C000
07C000
FFFC00
FFFC00
FFFC00
FFFC00
FFFC00
ENDCHAR
STARTCHAR 0067
ENCODING 103
SWIDTH 586 0
DWIDTH 34 0
BBX 24 34 5 -10
BITMAP
07FC1F
07FC1F
07FC1F
07FC1F
07FC1F
F803E0
F803E0
F803E0
F803E0
F803E0
F803E0
F803E0
F803E0
F803E0
07FFE0
07FFE0
07FFE0
07FFE0
07FFE0
0003E0
0003E0
0003E0
0003E0
0003E0
F803E0
F803E0
F803E0
F803E0
F803E0
07FC00
07FC00
07FC00
07FC00
07FC00
ENDCHAR
STARTCHAR 0068
ENCODING 104
SWIDTH 586 0
DWIDTH 34 0
BBX 24 34 5 0
BITMAP
FFC000
FFC000
FFC000
FFC000
FFC000
07C000
07C000
07C000
07C000
07C000
07C000
07C000
07C000
07C000
07C000
07FFE0
07FFE0
07FFE0
07FFE0
07FFFF
07C01F
07C01F
07C01F
07C01F
07C01F
07C01F
07C01F
07C01F
07C01F
FFC01F
FFC01F
FFC01F
FFC01F
FFC01F
ENDCHAR
STARTCHAR 0069
ENCODING 105
SWIDTH 586 0
DWIDTH 34 0
BBX 14 29 10 0
BITMAP
0F80
0F80
0F80
0F80
0F80
0000
0000
0000
0000
0000
FF80
FF80
FF80
FF80
FF80
0F80
0F80
0F80
0F80
0F80
0F80
0F80
0F80
0F80
FFFC
FFFC
FFFC
FFFC
FFFC
ENDCHAR
STARTCHAR 006A
ENCODING 106
SWIDTH 586 0
DWIDTH 34 0
BBX 19 34 10 -5
BITMAP
0003E0
0003E0
0003E0
0003E0
0003E0
000000
000000
000000
000000
000000
0003E0
0003E0
0003E0
0003E0
0003E0
0003E0
0003E0
0003E0
0003E0
0003E0
0003E0
0003E0
0003E0
0003E0
F803E0
F803E0
F803E0
F803E0
F803E0
0FFC00
0FFC00
0FFC00
0FFC00
0FFC00
ENDCHAR
STARTCHAR 006B
ENCODING 107
SWIDTH 586 0
DWIDTH 34 0
BBX 19 34 10 0
BITMAP
F80000
F80000
F80000
F80000
F80000
F80000
F80000
F80000
F80000
F80000
F803E0
F803E0
F803E0
F803E0
F803E0
F87C00
F87C00
F87C00
F87C00
FFFC00
FF8000
FF8000
FF8000
FF8000
F87C00
F87C00
F87C00
F87C00
F87C00
F803E0
F803E0
F803E0
F803E0
F803E0
ENDCHAR
STARTCHAR 006C
ENCODING 108
SWIDTH 586 0
DWIDTH 34 0
BBX 14 34 10 0
BITMAP
FF80
FF80
FF80
FF80
FF80
0F80
0F80
0F80
0F80
0F80
0F80
0F80
0F80
0F80
0F80
0F80
0F80
0F80
0F80
0F80
0F80
0F80
0F80
0F80
0F80
0F80
0F80
0F80
0F80
FFFC
FFFC
FFFC
FFFC
FFFC
ENDCHAR
STARTCHAR 006D
ENCODING 109
SWIDTH 586 0
DWIDTH 34 0
BBX 24 24 5 0
BITMAP
FFC3FF
FFC3FF
FFC3FF
FFC3FF
FFC3FF
F87C1F
F87C1F
F87C1F
F87C1F
F87C1F
F87C1F
F87C1F
F87C1F
F87C1F
F8001F
F8001F
F8001F
F8001F
F8001F
F8001F
F8001F
F8001F
F8001F
F8001F
ENDCHAR
STARTCHAR 006E
ENCODING 110
SWIDTH 586 0
DWIDTH 34 0
BBX 24 24 5 0
BITMAP
F87FE0
F87FE0
F87FE0
F87FE0
F87FE0
07C01F
07C01F
07C01F
07C01F
07C01F
07C01F
07C01F
07C01F
07C01F
07C01F
07C01F
07C01F
07C01F
07C01F
07C01F
07C01F
07C01F
07C01F
07C01F
ENDCHAR
STARTCHAR 006F
ENCODING 111
SWIDTH 586 0
DWIDTH 34 0
BBX 24 24 5 0
BITMAP
07FFE0
07FFE0
07FFE0
07FFE0
07FFE0
F8001F
F8001F
F8001F
F8001F
F8001F
F8001F
F8001F
F8001F
F8001F
F8001F
F8001F
F8001F
F8001F
F8001F
07FFE0
07FFE0
07FFE0
07FFE0
07FFE0
ENDCHAR
STARTCHAR 0070
ENCODING 112
SWIDTH 586 0
DWIDTH 34 0
BBX 24 34 5 -10
BITMAP
FFFFE0
FFFFE0
FFFFE0
FFFFE0
FFFFE0
07C01F
07C01F
07C01F
07C01F
07C01F
07C01F
07C01F
07C01F
07C01F
07FFE0
07FFE0
07FFE0
07FFE0
07FFE0
07C000
07C000
07C000
07C000
07C000
07C000
07C000
07C000
07C000
07C000
FFFC00
FFFC00
FFFC00
FFFC00
FFFC00
ENDCHAR
STARTCHAR 0071
ENCODING 113
SWIDTH 586 0
DWIDTH 34 0
BBX 24 34 5 -10
BITMAP
07FC1F
07FC1F
07FC1F
07FC1F
07FC1F
F803E0
F803E0
F803E0
F803E0
F803E0
F803E0
F803E0
F803E0
F803E0
07FFE0
07FFE0
07FFE0
07FFE0
07FFE0
0003E0
0003E0
0003E0
0003E0
0003E0
0003E0
0003E0
0003E0
0003E0
0003E0
007FFF
007FFF
007FFF
007FFF
007FFF
ENDCHAR
STARTCHAR 0072
ENCODING 114
SWIDTH 586 0
DWIDTH 34 0
BBX 24 24 5 0
BITMAP
F87FE0
F87FE0
F87FE0
F87FE0
F87FE0
07C01F
07C01F
07C01F
07C01F
07C01F
07C000
07C000
07C000
07C000
07C000
07C000
07C000
07C000
07C000
FFFC00
FFFC00
FFFC00
FFFC00
FFFC00
ENDCHAR
STARTCHAR 0073
ENCODING 115
SWIDTH 586 0
DWIDTH 34 0
BBX 24 24 5 0
BITMAP
07FFE0
07FFE0
07FFE0
07FFE0
07FFE0
F80000
F80000
F80000
F80000
FFFFE0
07FFE0
07FFE0
07FFE0
07FFE0
00001F
00001F
00001F
00001F
00001F
07FFE0
07FFE0
07FFE0
07FFE0
07FFE0
ENDCHAR
STARTCHAR 0074
ENCODING 116
SWIDTH 586 0
DWIDTH 34 0
BBX 24 34 5 0
BITMAP
07C000
07C000
07C000
07C000
07C000
07C000
07C000
07C000
07C000
07C000
FFFC00
FFFC00
FFFC00
FFFC00
FFFC00
07C000
07C000
07C000
07C000
07C000
07C000
07C000
07C000
07C000
07C01F
07C01F
07C01F
07C01F
07C01F
007FE0
007FE0
007FE0
007FE0
007FE0
ENDCHAR
STARTCHAR 0075
ENCODING 117
SWIDTH 586 0
DWIDTH 34 0
BBX 29 24 5 0
BITMAP
F8001F00
F8001F00
F8001F00
F8001F00
F8001F00
F8001F00
F8001F00
F8001F00
F8001F00
F8001F00
F8001F00
F8001F00
F8001F00
F8001F00
F8001F00
F8001F00
F8001F00
F8001F00
F8001F00
07FFE0F8
07FFE0F8
07FFE0F8
07FFE0F8
07FFE0F8
ENDCHAR
STARTCHAR 0076
ENCODING 118
SWIDTH 586 0
DWIDTH 34 0
BBX 24 24 5 0
BITMAP
F8001F
F8001F
F8001F
F8001F
F8001F
F8001F
F8001F
F8001F
F8001F
F8001F
F8001F
F8001F
F8001F
F8001F
07C3E0
07C3E0
07C3E0
07C3E0
07C3E0
007C00
007C00
007C00
007C00
007C00
ENDCHAR
STARTCHAR 0077
ENCODING 119
SWIDTH 586 0
DWIDTH 34 0
BBX 24 24 5 0
BITMAP
F8001F
F8001F
F8001F
F8001F
F8001F
F8001F
F8001F
F8001F
F8001F
F87C1F
F87C1F
F87C1F
F87C1F
F87C1F
FFFFFF
FFFFFF
FFFFFF
FFFFFF
FFFFFF
07C3E0
07C3E0
07C3E0
07C3E0
07C3E0
ENDCHAR
STARTCHAR 0078
ENCODING 120
SWIDTH 586 0
DWIDTH 34 0
BBX 24 24 5 0
BITMAP
F8001F
F8001F
F8001F
F8001F
F8001F
07C3E0
07C3E0
07C3E0
07C3E0
07FFE0
007C00
007C00
007C00
007C00
07C3E0
07C3E0
07C3E0
07C3E0
07C3E0
F8001F
F8001F
F8001F
F8001F
F8001F
ENDCHAR
STARTCHAR 0079
ENCODING 121
SWIDTH 586 0
DWIDTH 34 0
BBX 24 29 5 -5
BITMAP
F8001F
F8001F
F8001F
F8001F
F8001F
F8001F
F8001F
F8001F
F8001F
FFFFFF
07FFFF
07FFFF
07FFFF
07FFFF
00001F
00001F
00001F
00001F
00001F
00001F
00001F
00001F
00001F
00001F
07FFE0
07FFE0
07FFE0
07FFE0
07FFE0
ENDCHAR
STARTCHAR 007A
ENCODING 122
SWIDTH 586 0
DWIDTH 34 0
BBX 24 24 5 0
BITMAP
FFFFFF
FFFFFF
FFFFFF
FFFFFF
FFFFFF
0003E0
0003E0
0003E0
0003E0
007FE0
007C00
007C00
007C00
007C00
07C000
07C000
07C000
07C000
07C000
FFFFFF
FFFFFF
FFFFFF
FFFFFF
FFFFFF
ENDCHAR
STARTCHAR 007B
ENCODING 123
SWIDTH 586 0
DWIDTH 34 0
BBX 19 34 10 0
BITMAP
007FE0
007FE0
007FE0
007FE0
007FE0
0F8000
0F8000
0F8000
0F8000
0F8000
0F8000
0F8000
0F8000
0F8000
0F8000
F80000
F80000
F80000
F80000
FF8000
0F8000
0F8000
0F8000
0F8000
0F8000
0F8000
0F8000
0F8000
0F8000
007FE0
007FE0
007FE0
007FE0
007FE0
ENDCHAR
STARTCHAR 007C
ENCODING 124
SWIDTH 586 0
DWIDTH 34 0
BBX 5 34 14 0
BITMAP
F8
F8
F8
F8
F8
F8
F8
F8
F8
F8
F8
F8
F8
F8
F8
00
00
00
00
F8
F8
F8
F8
F8
F8
F8
F8
F8
F8
F8
F8
F8
F8
F8
ENDCHAR
STARTCHAR 007D
ENCODING 125
SWIDTH 586 0
DWIDTH 34 0
BBX 19 34 10 0
BITMAP
FF8000
FF8000
FF8000
FF8000
FF8000
007C00
007C00
007C00
007C00
007C00
007C00
007C00
007C00
007C00
007C00
0003E0
0003E0
0003E0
0003E0
007FE0
007C00
007C00
007C00
007C00
007C00
007C00
007C00
007C00
007C00
FF8000
FF8000
FF8000
FF8000
FF8000
ENDCHAR
STARTCHAR 007E
ENCODING 126
SWIDTH 586 0
DWIDTH 34 0
BBX 19 10 5 24
BITMAP
07C3E0
07C3E0
07C3E0
07C3E0
07C3E0
F87C00
F87C00
F87C00
F87C00
F87C00
ENDCHAR
STARTCHAR 007F
ENCODING 127
SWIDTH 586 0
DWIDTH 34 0
BBX 24 24 5 0
BITMAP
007C00
007C00
007C00
007C00
007C00
07C3E0
07C3E0
07C3E0
07C3E0
FFC3FF
F8001F
F8001F
F8001F
F8001F
F8001F
F8001F
F8001F
F8001F
F8001F
FFFFFF
FFFFFF
FFFFFF
FFFFFF
FFFFFF
ENDCHAR
STARTCHAR 00A0
ENCODING 160
SWIDTH 586 0
DWIDTH 34 0
BBX 0 0 0 0
BITMAP
ENDCHAR
STARTCHAR 00A1
ENCODING 161
SWIDTH 586 0
DWIDTH 34 0
BBX 14 34 10 0
BITMAP
0F80
0F80
0F80
0F80
0F80
0000
0000
0000
0000
0000
0F80
0F80
0F80
0F80
0F80
FFFC
FFFC
FFFC
FFFC
FFFC
FFFC
FFFC
FFFC
FFFC
FFFC
FFFC
FFFC
FFFC
FFFC
0F80
0F80
0F80
0F80
0F80
ENDCHAR
STARTCHAR 00A2
ENCODING 162
SWIDTH 586 0
DWIDTH 34 0
BBX 24 29 5 0
BITMAP
007C00
007C00
007C00
007C00
007C00
07FFE0
07FFE0
07FFE0
07FFE0
07FFE0
F87C1F
F87C1F
F87C1F
F87C1F
F87C1F
F80000
F80000
F80000
F80000
F87C1F
F87C1F
F87C1F
F87C1F
F87C1F
07FFE0
07FFE0
07FFE0
07FFE0
07FFE0
ENDCHAR
STARTCHAR 00A3
ENCODING 163
SWIDTH 586 0
DWIDTH 34 0
BBX 24 34 5 0
BITMAP
0003E0
0003E0
0003E0
0003E0
0003E0
007C1F
007C1F
007C1F
007C1F
007C1F
007C00
007C00
007C00
007C00
007C00
07FFE0
07FFE0
07FFE0
07FFE0
07FFE0
007C00
007C00
007C00
007C00
FFFC00
FFFC00
FFFC00
FFFC00
FFFC00
FFFFFF
FFFFFF
FFFFFF
FFFFFF
FFFFFF
ENDCHAR
STARTCHAR 00A5
ENCODING 165
SWIDTH 586 0
DWIDTH 34 0
BBX 24 34 5 0
BITMAP
F8001F
F8001F
F8001F
F8001F
F8001F
07C3E0
07C3E0
07C3E0
07C3E0
07C3E0
007C00
007C00
007C00
007C00
007C00
07FFE0
07FFE0
07FFE0
07FFE0
07FFE0
007C00
007C00
007C00
007C00
07FFE0
07FFE0
07FFE0
07FFE0
07FFE0
007C00
007C00
007C00
007C00
007C00
ENDCHAR
STARTCHAR 00A7
ENCODING 167
SWIDTH 586 0
DWIDTH 34 0
BBX 14 34 10 0
BITMAP
0FFC
0FFC
0FFC
0FFC
0FFC
F800
F800
F800
F800
F800
0F80
0F80
0F80
0F80
0F80
F87C
F87C
F87C
F87C
FFFC
0F80
0F80
0F80
0F80
007C
007C
007C
007C
007C
FF80
FF80
FF80
FF80
FF80
ENDCHAR
STARTCHAR 00AA
ENCODING 170
SWIDTH 586 0
DWIDTH 34 0
BBX 24 34 5 0
BITMAP
07FC00
07FC00
07FC00
07FC00
07FC00
0003E0
0003E0
0003E0
0003E0
0003E0
07FFE0
07FFE0
07FFE0
07FFE0
07FFE0
F803E0
F803E0
F803E0
F803E0
FFFFFF
07FC1F
07FC1F
07FC1F
07FC1F
000000
000000
000000
000000
000000
FFFFFF
FFFFFF
FFFFFF
FFFFFF
FFFFFF
ENDCHAR
STARTCHAR 00AB
ENCODING 171
SWIDTH 586 0
DWIDTH 34 0
BBX 24 24 5 5
BITMAP
007C1F
007C1F
007C1F
007C1F
007C1F
07C3E0
07C3E0
07C3E0
07C3E0
07C3E0
F87C00
F87C00
F87C00
F87C00
FFFFE0
07C3E0
07C3E0
07C3E0
07C3E0
007C1F
007C1F
007C1F
007C1F
007C1F
ENDCHAR
STARTCHAR 00AC
ENCODING 172
SWIDTH 586 0
DWIDTH 34 0
BBX 24 15 5 0
BITMAP
FFFFFF
FFFFFF
FFFFFF
FFFFFF
FFFFFF
00001F
00001F
00001F
00001F
00001F
00001F
00001F
00001F
00001F
00001F
ENDCHAR
STARTCHAR 00B0
ENCODING 176
SWIDTH 586 0
DWIDTH 34 0
BBX 19 14 10 10
BITMAP
0FFC00
0FFC00
0FFC00
0FFC00
0FFC00
F803E0
F803E0
F803E0
F803E0
FFFFE0
0FFC00
0FFC00
0FFC00
0FFC00
ENDCHAR
STARTCHAR 00B1
ENCODING 177
SWIDTH 586 0
DWIDTH 34 0
BBX 24 34 5 0
BITMAP
007C00
007C00
007C00
007C00
007C00
007C00
007C00
007C00
007C00
007C00
FFFFFF
FFFFFF
FFFFFF
FFFFFF
FFFFFF
007C00
007C00
007C00
007C00
007C00
007C00
007C00
007C00
007C00
000000
000000
000000
000000
000000
FFFFFF
FFFFFF
FFFFFF
FFFFFF
FFFFFF
ENDCHAR
STARTCHAR 00B2
ENCODING 178
SWIDTH 586 0
DWIDTH 34 0
BBX 19 24 5 5
BITMAP
07FC00
07FC00
07FC00
07FC00
07FC00
F803E0
F803E0
F803E0
F803E0
F803E0
007C00
007C00
007C00
007C00
07FC00
07C000
07C000
07C000
07C000
FFFFE0
FFFFE0
FFFFE0
FFFFE0
FFFFE0
ENDCHAR
STARTCHAR 00B5
ENCODING 181
SWIDTH 586 0
DWIDTH 34 0
BBX 24 34 5 0
BITMAP
07C01F
07C01F
07C01F
07C01F
07C01F
07C01F
07C01F
07C01F
07C01F
07C01F
07C01F
07C01F
07C01F
07C01F
07C01F
07FFE0
07FFE0
07FFE0
07FFE0
07FFE0
07C000
07C000
07C000
07C000
07C000
07C000
07C000
07C000
07C000
F80000
F80000
F80000
F80000
F80000
ENDCHAR
STARTCHAR 00B6
ENCODING 182
SWIDTH 586 0
DWIDTH 34 0
BBX 24 34 5 0
BITMAP
07FFFF
07FFFF
07FFFF
07FFFF
07FFFF
F87C1F
F87C1F
F87C1F
F87C1F
F87C1F
F87C1F
F87C1F
F87C1F
F87C1F
F87C1F
07FFFF
07FFFF
07FFFF
07FFFF
07FFFF
007C1F
007C1F
007C1F
007C1F
007C1F
007C1F
007C1F
007C1F
007C1F
007C1F
007C1F
007C1F
007C1F
007C1F
ENDCHAR
STARTCHAR 00B7
ENCODING 183
SWIDTH 586 0
DWIDTH 34 0
BBX 10 10 14 5
BITMAP
FFC0
FFC0
FFC0
FFC0
FFC0
FFC0
FFC0
FFC0
FFC0
FFC0
ENDCHAR
STARTCHAR 00BA
ENCODING 186
SWIDTH 586 0
DWIDTH 34 0
BBX 24 29 5 0
BITMAP
07FFE0
07FFE0
07FFE0
07FFE0
07FFE0
F8001F
F8001F
F8001F
F8001F
F8001F
F8001F
F8001F
F8001F
F8001F
FFFFFF
07FFE0
07FFE0
07FFE0
07FFE0
000000
000000
000000
000000
000000
FFFFFF
FFFFFF
FFFFFF
FFFFFF
FFFFFF
ENDCHAR
STARTCHAR 00BB
ENCODING 187
SWIDTH 586 0
DWIDTH 34 0
BBX 24 24 5 5
BITMAP
F87C00
F87C00
F87C00
F87C00
F87C00
07C3E0
07C3E0
07C3E0
07C3E0
07C3E0
007C1F
007C1F
007C1F
007C1F
07FFFF
07C3E0
07C3E0
07C3E0
07C3E0
F87C00
F87C00
F87C00
F87C00
F87C00
ENDCHAR
STARTCHAR 00BC
ENCODING 188
SWIDTH 586 0
DWIDTH 34 0
BBX 24 39 5 -5
BITMAP
F80000
F80000
F80000
F80000
F80000
F803E0
F803E0
F803E0
F803E0
F803E0
F87C1F
F87C1F
F87C1F
F87C1F
F87C1F
07C3FF
07C3FF
07C3FF
07C3FF
FFFFFF
F87C1F
F87C1F
F87C1F
F87C1F
07FFFF
07FFFF
07FFFF
07FFFF
07FFFF
00001F
00001F
00001F
00001F
00001F
00001F
00001F
00001F
00001F
00001F
ENDCHAR
STARTCHAR 00BD
ENCODING 189
SWIDTH 586 0
DWIDTH 34 0
BBX 24 39 5 -5
BITMAP
F80000
F80000
F80000
F80000
F80000
F803E0
F803E0
F803E0
F803E0
F803E0
F87C00
F87C00
F87C00
F87C00
F87C00
07C000
07C000
07C000
07C000
FFFFE0
F87FE0
F87FE0
F87FE0
F87FE0
07C01F
07C01F
07C01F
07C01F
07C01F
007C00
007C00
007C00
007C00
007C00
07FFFF
07FFFF
07FFFF
07FFFF
07FFFF
ENDCHAR
STARTCHAR 00BF
ENCODING 191
SWIDTH 586 0
DWIDTH 34 0
BBX 24 34 5 0
BITMAP
007C00
007C00
007C00
007C00
007C00
000000
000000
000000
000000
000000
007C00
007C00
007C00
007C00
007C00
07C000
07C000
07C000
07C000
FFC000
F80000
F80000
F80000
F80000
F8001F
F8001F
F8001F
F8001F
F8001F
07FFE0
07FFE0
07FFE0
07FFE0
07FFE0
ENDCHAR
STARTCHAR 00C4
ENCODING 196
SWIDTH 586 0
DWIDTH 34 0
BBX 24 34 5 0
BITMAP
F8001F
F8001F
F8001F
F8001F
F8001F
07FFE0
07FFE0
07FFE0
07FFE0
07FFE0
F8001F
F8001F
F8001F
F8001F
F8001F
F8001F
F8001F
F8001F
F8001F
FFFFFF
FFFFFF
FFFFFF
FFFFFF
FFFFFF
F8001F
F8001F
F8001F
F8001F
F8001F
F8001F
F8001F
F8001F
F8001F
F8001F
ENDCHAR
STARTCHAR 00C5
ENCODING 197
SWIDTH 586 0
DWIDTH 34 0
BBX 24 34 5 0
BITMAP
007C00
007C00
007C00
007C00
007C00
07C3E0
07C3E0
07C3E0
07C3E0
07C3E0
07FFE0
07FFE0
07FFE0
07FFE0
07FFE0
F8001F
F8001F
F8001F
F8001F
FFFFFF
FFFFFF
FFFFFF
FFFFFF
FFFFFF
F8001F
F8001F
F8001F
F8001F
F8001F
F8001F
F8001F
F8001F
F8001F
F8001F
ENDCHAR
STARTCHAR 00C6
ENCODING 198
SWIDTH 586 0
DWIDTH 34 0
BBX 24 34 5 0
BITMAP
007FFF
007FFF
007FFF
007FFF
007FFF
07FC00
07FC00
07FC00
07FC00
07FC00
F87C00
F87C00
F87C00
F87C00
F87C00
FFFFFF
FFFFFF
FFFFFF
FFFFFF
FFFFFF
F87C00
F87C00
F87C00
F87C00
F87C00
F87C00
F87C00
F87C00
F87C00
F87FFF
F87FFF
F87FFF
F87FFF
F87FFF
ENDCHAR
STARTCHAR 00C7
ENCODING 199
SWIDTH 586 0
DWIDTH 34 0
BBX 24 34 5 0
BITMAP
07FFE0
07FFE0
07FFE0
07FFE0
07FFE0
F8001F
F8001F
F8001F
F8001F
F8001F
F80000
F80000
F80000
F80000
F80000
F8001F
F8001F
F8001F
F8001F
FFFFFF
07FFE0
07FFE0
07FFE0
07FFE0
00001F
00001F
00001F
00001F
00001F
07FFE0
07FFE0
07FFE0
07FFE0
07FFE0
ENDCHAR
STARTCHAR 00C9
ENCODING 201
SWIDTH 586 0
DWIDTH 34 0
BBX 24 34 5 0
BITMAP
007C00
007C00
007C00
007C00
007C00
07C000
07C000
07C000
07C000
07C000
FFFFFF
FFFFFF
FFFFFF
FFFFFF
FFFFFF
F80000
F80000
F80000
F80000
FFFFE0
FFFFE0
FFFFE0
FFFFE0
FFFFE0
F80000
F80000
F80000
F80000
F80000
FFFFFF
FFFFFF
FFFFFF
FFFFFF
FFFFFF
ENDCHAR
STARTCHAR 00D1
ENCODING 209
SWIDTH 586 0
DWIDTH 34 0
BBX 24 34 5 0
BITMAP
007C1F
007C1F
007C1F
007C1F
007C1F
07C3E0
07C3E0
07C3E0
07C3E0
07C3E0
F8001F
F8001F
F8001F
F8001F
F8001F
FFC01F
FFC01F
FFC01F
FFC01F
FFFC1F
F87C1F
F87C1F
F87C1F
F87C1F
F803FF
F803FF
F803FF
F803FF
F803FF
F8001F
F8001F
F8001F
F8001F
F8001F
ENDCHAR
STARTCHAR 00D6
ENCODING 214
SWIDTH 586 0
DWIDTH 34 0
BBX 24 34 5 0
BITMAP
F8001F
F8001F
F8001F
F8001F
F8001F
000000
000000
000000
000000
000000
07FFE0
07FFE0
07FFE0
07FFE0
07FFE0
F8001F
F8001F
F8001F
F8001F
F8001F
F8001F
F8001F
F8001F
F8001F
F8001F
F8001F
F8001F
F8001F
F8001F
07FFE0
07FFE0
07FFE0
07FFE0
07FFE0
ENDCHAR
STARTCHAR 00DC
ENCODING 220
SWIDTH 586 0
DWIDTH 34 0
BBX 29 34 5 0
BITMAP
07C01F00
07C01F00
07C01F00
07C01F00
07C01F00
00000000
00000000
00000000
00000000
00000000
F80000F8
F80000F8
F80000F8
F80000F8
F80000F8
F80000F8
F80000F8
F80000F8
F80000F8
F80000F8
F80000F8
F80000F8
F80000F8
F80000F8
F80000F8
F80000F8
F80000F8
F80000F8
F80000F8
07FFFF00
07FFFF00
07FFFF00
07FFFF00
07FFFF00
ENDCHAR
STARTCHAR 00DF
ENCODING 223
SWIDTH 586 0
DWIDTH 34 0
BBX 24 34 5 0
BITMAP
07FFE0
07FFE0
07FFE0
07FFE0
07FFE0
F8001F
F8001F
F8001F
F8001F
F8001F
FFFFE0
FFFFE0
FFFFE0
FFFFE0
FFFFE0
F8001F
F8001F
F8001F
F8001F
F8001F
F8001F
F8001F
F8001F
F8001F
FFFFE0
FFFFE0
FFFFE0
FFFFE0
FFFFE0
F80000
F80000
F80000
F80000
F80000
ENDCHAR
STARTCHAR 00E0
ENCODING 224
SWIDTH 586 0
DWIDTH 34 0
BBX 29 34 5 0
BITMAP
07C00000
07C00000
07C00000
07C00000
07C00000
007C0000
007C0000
007C0000
007C0000
007C0000
07FFE000
07FFE000
07FFE000
07FFE000
07FFE000
00001F00
00001F00
00001F00
00001F00
07FFFF00
07FFFF00
07FFFF00
07FFFF00
07FFFF00
F8001F00
F8001F00
F8001F00
F8001F00
F8001F00
07FFE0F8
07FFE0F8
07FFE0F8
07FFE0F8
07FFE0F8
ENDCHAR
STARTCHAR 00E1
ENCODING 225
SWIDTH 586 0
DWIDTH 34 0
BBX 29 34 5 0
BITMAP
0003E000
0003E000
0003E000
0003E000
0003E000
007C0000
007C0000
007C0000
007C0000
007C0000
07FFE000
07FFE000
07FFE000
07FFE000
07FFE000
00001F00
00001F00
00001F00
00001F00
FFFFFF00
FFFFFF00
FFFFFF00
FFFFFF00
FFFFFF00
F8001F00
F8001F00
F8001F00
F8001F00
F8001F00
07FFE0F8
07FFE0F8
07FFE0F8
07FFE0F8
07FFE0F8
ENDCHAR
STARTCHAR 00E2
ENCODING 226
SWIDTH 586 0
DWIDTH 34 0
BBX 29 34 5 0
BITMAP
007C0000
007C0000
007C0000
007C0000
007C0000
07C3E000
07C3E000
07C3E000
07C3E000
07C3E000
07FFE000
07FFE000
07FFE000
07FFE000
07FFE000
00001F00
00001F00
00001F00
00001F00
07FFFF00
07FFFF00
07FFFF00
07FFFF00
07FFFF00
F8001F00
F8001F00
F8001F00
F8001F00
F8001F00
07FFE0F8
07FFE0F8
07FFE0F8
07FFE0F8
07FFE0F8
ENDCHAR
STARTCHAR 00E4
ENCODING 228
SWIDTH 586 0
DWIDTH 34 0
BBX 29 34 5 0
BITMAP
F8001F00
F8001F00
F8001F00
F8001F00
F8001F00
00000000
00000000
00000000
00000000
00000000
07FFE000
07FFE000
07FFE000
07FFE000
07FFE000
00001F00
00001F00
00001F00
00001F00
07FFFF00
07FFFF00
07FFFF00
07FFFF00
07FFFF00
F8001F00
F8001F00
F8001F00
F8001F00
F8001F00
07FFE0F8
07FFE0F8
07FFE0F8
07FFE0F8
07FFE0F8
ENDCHAR
STARTCHAR 00E5
ENCODING 229
SWIDTH 586 0
DWIDTH 34 0
BBX 29 39 5 -5
BITMAP
007C0000
007C0000
007C0000
007C0000
007C0000
07C3E000
07C3E000
07C3E000
07C3E000
07C3E000
007C0000
007C0000
007C0000
007C0000
007C0000
07FFE000
07FFE000
07FFE000
07FFE000
07FFFF00
00001F00
00001F00
00001F00
00001F00
07FFFF00
07FFFF00
07FFFF00
07FFFF00
07FFFF00
F8001F00
F8001F00
F8001F00
F8001F00
F8001F00
07FFE0F8
07FFE0F8
07FFE0F8
07FFE0F8
07FFE0F8
ENDCHAR
STARTCHAR 00E6
ENCODING 230
SWIDTH 586 0
DWIDTH 34 0
BBX 24 24 5 0
BITMAP
FFC3E0
FFC3E0
FFC3E0
FFC3E0
FFC3E0
007C1F
007C1F
007C1F
007C1F
07FFFF
07FFFF
07FFFF
07FFFF
07FFFF
F87C00
F87C00
F87C00
F87C00
F87C00
07C3FF
07C3FF
07C3FF
07C3FF
07C3FF
ENDCHAR
STARTCHAR 00E7
ENCODING 231
SWIDTH 586 0
DWIDTH 34 0
BBX 24 34 5 -5
BITMAP
07FFE0
07FFE0
07FFE0
07FFE0
07FFE0
F8001F
F8001F
F8001F
F8001F
F8001F
F80000
F80000
F80000
F80000
F8001F
F8001F
F8001F
F8001F
F8001F
07FFE0
07FFE0
07FFE0
07FFE0
07FFE0
00001F
00001F
00001F
00001F
00001F
07FFE0
07FFE0
07FFE0
07FFE0
07FFE0
ENDCHAR
STARTCHAR 00E8
ENCODING 232
SWIDTH 586 0
DWIDTH 34 0
BBX 24 34 5 0
BITMAP
07C000
07C000
07C000
07C000
07C000
007C00
007C00
007C00
007C00
007C00
07FFE0
07FFE0
07FFE0
07FFE0
07FFE0
F8001F
F8001F
F8001F
F8001F
FFFFFF
FFFFFF
FFFFFF
FFFFFF
FFFFFF
F80000
F80000
F80000
F80000
F80000
07FFE0
07FFE0
07FFE0
07FFE0
07FFE0
ENDCHAR
STARTCHAR 00E9
ENCODING 233
SWIDTH 586 0
DWIDTH 34 0
BBX 24 34 5 0
BITMAP
007C00
007C00
007C00
007C00
007C00
07C000
07C000
07C000
07C000
07C000
07FFE0
07FFE0
07FFE0
07FFE0
07FFE0
F8001F
F8001F
F8001F
F8001F
FFFFFF
FFFFFF
FFFFFF
FFFFFF
FFFFFF
F80000
F80000
F80000
F80000
F80000
07FFE0
07FFE0
07FFE0
07FFE0
07FFE0
ENDCHAR
STARTCHAR 00EA
ENCODING 234
SWIDTH 586 0
DWIDTH 34 0
BBX 24 34 5 0
BITMAP
007C00
007C00
007C00
007C00
007C00
07C3E0
07C3E0
07C3E0
07C3E0
07C3E0
07FFE0
07FFE0
07FFE0
07FFE0
07FFE0
F8001F
F8001F
F8001F
F8001F
FFFFFF
FFFFFF
FFFFFF
FFFFFF
FFFFFF
F80000
F80000
F80000
F80000
F80000
07FFE0
07FFE0
07FFE0
07FFE0
07FFE0
ENDCHAR
STARTCHAR 00EB
ENCODING 235
SWIDTH 586 0
DWIDTH 34 0
BBX 24 34 5 0
BITMAP
F8001F
F8001F
F8001F
F8001F
F8001F
000000
000000
000000
000000
000000
07FFE0
07FFE0
07FFE0
07FFE0
07FFE0
F8001F
F8001F
F8001F
F8001F
FFFFFF
FFFFFF
FFFFFF
FFFFFF
FFFFFF
F80000
F80000
F80000
F80000
F80000
07FFE0
07FFE0
07FFE0
07FFE0
07FFE0
ENDCHAR
STARTCHAR 00EC
ENCODING 236
SWIDTH 586 0
DWIDTH 34 0
BBX 14 34 10 0
BITMAP
F800
F800
F800
F800
F800
0F80
0F80
0F80
0F80
0F80
FF80
FF80
FF80
FF80
FF80
0F80
0F80
0F80
0F80
0F80
0F80
0F80
0F80
0F80
0F80
0F80
0F80
0F80
0F80
FFFC
FFFC
FFFC
FFFC
FFFC
ENDCHAR
STARTCHAR 00ED
ENCODING 237
SWIDTH 586 0
DWIDTH 34 0
BBX 14 34 10 0
BITMAP
0F80
0F80
0F80
0F80
0F80
F800
F800
F800
F800
F800
FF80
FF80
FF80
FF80
FF80
0F80
0F80
0F80
0F80
0F80
0F80
0F80
0F80
0F80
0F80
0F80
0F80
0F80
0F80
FFFC
FFFC
FFFC
FFFC
FFFC
ENDCHAR
STARTCHAR 00EE
ENCODING 238
SWIDTH 586 0
DWIDTH 34 0
BBX 14 34 10 0
BITMAP
0F80
0F80
0F80
0F80
0F80
F87C
F87C
F87C
F87C
F87C
FF80
FF80
FF80
FF80
FF80
0F80
0F80
0F80
0F80
0F80
0F80
0F80
0F80
0F80
0F80
0F80
0F80
0F80
0F80
FFFC
FFFC
FFFC
FFFC
FFFC
ENDCHAR
STARTCHAR 00EF
ENCODING 239
SWIDTH 586 0
DWIDTH 34 0
BBX 19 34 5 0
BITMAP
F803E0
F803E0
F803E0
F803E0
F803E0
000000
000000
000000
000000
000000
07FC00
07FC00
07FC00
07FC00
07FC00
007C00
007C00
007C00
007C00
007C00
007C00
007C00
007C00
007C00
007C00
007C00
007C00
007C00
007C00
07FFE0
07FFE0
07FFE0
07FFE0
07FFE0
ENDCHAR
STARTCHAR 00F1
ENCODING 241
SWIDTH 586 0
DWIDTH 34 0
BBX 24 34 5 0
BITMAP
07C3E0
07C3E0
07C3E0
07C3E0
07C3E0
F87C00
F87C00
F87C00
F87C00
F87C00
F87FE0
F87FE0
F87FE0
F87FE0
F87FE0
07C01F
07C01F
07C01F
07C01F
07C01F
07C01F
07C01F
07C01F
07C01F
07C01F
07C01F
07C01F
07C01F
07C01F
07C01F
07C01F
07C01F
07C01F
07C01F
ENDCHAR
STARTCHAR 00F2
ENCODING 242
SWIDTH 586 0
DWIDTH 34 0
BBX 24 34 5 0
BITMAP
F80000
F80000
F80000
F80000
F80000
07C000
07C000
07C000
07C000
07C000
007C00
007C00
007C00
007C00
007C00
07FFE0
07FFE0
07FFE0
07FFE0
FFFFFF
F8001F
F8001F
F8001F
F8001F
F8001F
F8001F
F8001F
F8001F
F8001F
07FFE0
07FFE0
07FFE0
07FFE0
07FFE0
ENDCHAR
STARTCHAR 00F3
ENCODING 243
SWIDTH 586 0
DWIDTH 34 0
BBX 24 34 5 0
BITMAP
0003E0
0003E0
0003E0
0003E0
0003E0
007C00
007C00
007C00
007C00
007C00
07FFE0
07FFE0
07FFE0
07FFE0
07FFE0
F8001F
F8001F
F8001F
F8001F
F8001F
F8001F
F8001F
F8001F
F8001F
F8001F
F8001F
F8001F
F8001F
F8001F
07FFE0
07FFE0
07FFE0
07FFE0
07FFE0
ENDCHAR
STARTCHAR 00F4
ENCODING 244
SWIDTH 586 0
DWIDTH 34 0
BBX 24 34 5 0
BITMAP
007C00
007C00
007C00
007C00
007C00
07C3E0
07C3E0
07C3E0
07C3E0
07C3E0
07FFE0
07FFE0
07FFE0
07FFE0
07FFE0
F8001F
F8001F
F8001F
F8001F
F8001F
F8001F
F8001F
F8001F
F8001F
F8001F
F8001F
F8001F
F8001F
F8001F
07FFE0
07FFE0
07FFE0
07FFE0
07FFE0
ENDCHAR
STARTCHAR 00F6
ENCODING 246
SWIDTH 586 0
DWIDTH 34 0
BBX 24 34 5 0
BITMAP
F8001F
F8001F
F8001F
F8001F
F8001F
000000
000000
000000
000000
000000
07FFE0
07FFE0
07FFE0
07FFE0
07FFE0
F8001F
F8001F
F8001F
F8001F
F8001F
F8001F
F8001F
F8001F
F8001F
F8001F
F8001F
F8001F
F8001F
F8001F
07FFE0
07FFE0
07FFE0
07FFE0
07FFE0
ENDCHAR
STARTCHAR 00F7
ENCODING 247
SWIDTH 586 0
DWIDTH 34 0
BBX 24 24 5 5
BITMAP
007C00
007C00
007C00
007C00
007C00
000000
000000
000000
000000
000000
FFFFFF
FFFFFF
FFFFFF
FFFFFF
FFFFFF
000000
000000
000000
000000
007C00
007C00
007C00
007C00
007C00
ENDCHAR
STARTCHAR 00F9
ENCODING 249
SWIDTH 586 0
DWIDTH 34 0
BBX 29 34 5 0
BITMAP
07C00000
07C00000
07C00000
07C00000
07C00000
007C0000
007C0000
007C0000
007C0000
007C0000
F8001F00
F8001F00
F8001F00
F8001F00
F8001F00
F8001F00
F8001F00
F8001F00
F8001F00
F8001F00
F8001F00
F8001F00
F8001F00
F8001F00
F8001F00
F8001F00
F8001F00
F8001F00
F8001F00
07FFE0F8
07FFE0F8
07FFE0F8
07FFE0F8
07FFE0F8
ENDCHAR
STARTCHAR 00FA
ENCODING 250
SWIDTH 586 0
DWIDTH 34 0
BBX 29 34 5 0
BITMAP
0003E000
0003E000
0003E000
0003E000
0003E000
007C0000
007C0000
007C0000
007C0000
007C0000
F8001F00
F8001F00
F8001F00
F8001F00
F8001F00
F8001F00
F8001F00
F8001F00
F8001F00
F8001F00
F8001F00
F8001F00
F8001F00
F8001F00
F8001F00
F8001F00
F8001F00
F8001F00
F8001F00
07FFE0F8
07FFE0F8
07FFE0F8
07FFE0F8
07FFE0F8
ENDCHAR
STARTCHAR 00FB
ENCODING 251
SWIDTH 586 0
DWIDTH 34 0
BBX 29 34 5 0
BITMAP
007C0000
007C0000
007C0000
007C0000
007C0000
07C3E000
07C3E000
07C3E000
07C3E000
07C3E000
F8001F00
F8001F00
F8001F00
F8001F00
F8001F00
F8001F00
F8001F00
F8001F00
F8001F00
F8001F00
F8001F00
F8001F00
F8001F00
F8001F00
F8001F00
F8001F00
F8001F00
F8001F00
F8001F00
07FFE0F8
07FFE0F8
07FFE0F8
07FFE0F8
07FFE0F8
ENDCHAR
STARTCHAR 00FC
ENCODING 252
SWIDTH 586 0
DWIDTH 34 0
BBX 29 34 5 0
BITMAP
F8001F00
F8001F00
F8001F00
F8001F00
F8001F00
00000000
00000000
00000000
00000000
00000000
F8001F00
F8001F00
F8001F00
F8001F00
F8001F00
F8001F00
F8001F00
F8001F00
F8001F00
F8001F00
F8001F00
F8001F00
F8001F00
F8001F00
F8001F00
F8001F00
F8001F00
F8001F00
F8001F00
07FFE0F8
07FFE0F8
07FFE0F8
07FFE0F8
07FFE0F8
ENDCHAR
STARTCHAR 00FF
ENCODING 255
SWIDTH 586 0
DWIDTH 34 0
BBX 24 39 5 -5
BITMAP
F8001F
F8001F
F8001F
F8001F
F8001F
000000
000000
000000
000000
000000
F8001F
F8001F
F8001F
F8001F
F8001F
F8001F
F8001F
F8001F
F8001F
FFFFFF
07FFFF
07FFFF
07FFFF
07FFFF
00001F
00001F
00001F
00001F
00001F
00001F
00001F
00001F
00001F
00001F
07FFE0
07FFE0
07FFE0
07FFE0
07FFE0
ENDCHAR
STARTCHAR 0192
ENCODING 402
SWIDTH 586 0
DWIDTH 34 0
BBX 24 39 5 -5
BITMAP
0003E0
0003E0
0003E0
0003E0
0003E0
007C1F
007C1F
007C1F
007C1F
007C1F
007C00
007C00
007C00
007C00
007C00
07FFE0
07FFE0
07FFE0
07FFE0
07FFE0
007C00
007C00
007C00
007C00
007C00
007C00
007C00
007C00
007C00
F87C00
F87C00
F87C00
F87C00
F87C00
07C000
07C000
07C000
07C000
07C000
ENDCHAR
STARTCHAR 0393
ENCODING 915
SWIDTH 586 0
DWIDTH 34 0
BBX 24 34 5 0
BITMAP
FFFFFF
FFFFFF
FFFFFF
FFFFFF
FFFFFF
F8001F
F8001F
F8001F
F8001F
F8001F
F80000
F80000
F80000
F80000
F80000
F80000
F80000
F80000
F80000
F80000
F80000
F80000
F80000
F80000
F80000
F80000
F80000
F80000
F80000
F80000
F80000
F80000
F80000
F80000
ENDCHAR
STARTCHAR 0398
ENCODING 920
SWIDTH 586 0
DWIDTH 34 0
BBX 24 34 5 0
BITMAP
007C00
007C00
007C00
007C00
007C00
07C3E0
07C3E0
07C3E0
07C3E0
07C3E0
F8001F
F8001F
F8001F
F8001F
F8001F
FFFFFF
FFFFFF
FFFFFF
FFFFFF
FFFFFF
F8001F
F8001F
F8001F
F8001F
07C3E0
07C3E0
07C3E0
07C3E0
07C3E0
007C00
007C00
007C00
007C00
007C00
ENDCHAR
STARTCHAR 03A3
ENCODING 931
SWIDTH 586 0
DWIDTH 34 0
BBX 24 34 5 0
BITMAP
FFFFFF
FFFFFF
FFFFFF
FFFFFF
FFFFFF
F8001F
F8001F
F8001F
F8001F
F8001F
07C000
07C000
07C000
07C000
07C000
007C00
007C00
007C00
007C00
07FC00
07C000
07C000
07C000
07C000
F8001F
F8001F
F8001F
F8001F
F8001F
FFFFFF
FFFFFF
FFFFFF
FFFFFF
FFFFFF
ENDCHAR
STARTCHAR 03A6
ENCODING 934
SWIDTH 586 0
DWIDTH 34 0
BBX 24 34 5 0
BITMAP
FFFFFF
FFFFFF
FFFFFF
FFFFFF
FFFFFF
007C00
007C00
007C00
007C00
007C00
07C3E0
07C3E0
07C3E0
07C3E0
07C3E0
F8001F
F8001F
F8001F
F8001F
FFC3FF
07C3E0
07C3E0
07C3E0
07C3E0
007C00
007C00
007C00
007C00
007C00
FFFFFF
FFFFFF
FFFFFF
FFFFFF
FFFFFF
ENDCHAR
STARTCHAR 03A9
ENCODING 937
SWIDTH 586 0
DWIDTH 34 0
BBX 24 34 5 0
BITMAP
007C00
007C00
007C00
007C00
007C00
07C3E0
07C3E0
07C3E0
07C3E0
07C3E0
F8001F
F8001F
F8001F
F8001F
F8001F
F8001F
F8001F
F8001F
F8001F
FFC3FF
07C3E0
07C3E0
07C3E0
07C3E0
07C3E0
07C3E0
07C3E0
07C3E0
07C3E0
FFC3FF
FFC3FF
FFC3FF
FFC3FF
FFC3FF
ENDCHAR
STARTCHAR 03B1
ENCODING 945
SWIDTH 586 0
DWIDTH 34 0
BBX 24 24 5 5
BITMAP
07FC1F
07FC1F
07FC1F
07FC1F
07FC1F
F803E0
F803E0
F803E0
F803E0
F803E0
F803E0
F803E0
F803E0
F803E0
F803E0
F803E0
F803E0
F803E0
F803E0
07FC1F
07FC1F
07FC1F
07FC1F
07FC1F
ENDCHAR
STARTCHAR 03B4
ENCODING 948
SWIDTH 586 0
DWIDTH 34 0
BBX 24 34 5 0
BITMAP
007FFF
007FFF
007FFF
007FFF
007FFF
07C000
07C000
07C000
07C000
07C000
007C00
007C00
007C00
007C00
007C00
07FFE0
07FFE0
07FFE0
07FFE0
FFFFFF
F8001F
F8001F
F8001F
F8001F
F8001F
F8001F
F8001F
F8001F
F8001F
07FFE0
07FFE0
07FFE0
07FFE0
07FFE0
ENDCHAR
STARTCHAR 03B5
ENCODING 949
SWIDTH 586 0
DWIDTH 34 0
BBX 24 34 5 0
BITMAP
007FFF
007FFF
007FFF
007FFF
007FFF
07C000
07C000
07C000
07C000
07C000
F80000
F80000
F80000
F80000
F80000
FFFFE0
FFFFE0
FFFFE0
FFFFE0
FFFFE0
F80000
F80000
F80000
F80000
07C000
07C000
07C000
07C000
07C000
007FFF
007FFF
007FFF
007FFF
007FFF
ENDCHAR
STARTCHAR 03C0
ENCODING 960
SWIDTH 586 0
DWIDTH 34 0
BBX 19 34 10 0
BITMAP
FFFFE0
FFFFE0
FFFFE0
FFFFE0
FFFFE0
F87C00
F87C00
F87C00
F87C00
F87C00
F87C00
F87C00
F87C00
F87C00
F87C00
F87C00
F87C00
F87C00
F87C00
F87C00
F87C00
F87C00
F87C00
F87C00
F87C00
F87C00
F87C00
F87C00
F87C00
F87C00
F87C00
F87C00
F87C00
F87C00
ENDCHAR
STARTCHAR 03C3
ENCODING 963
SWIDTH 586 0
DWIDTH 34 0
BBX 24 29 5 0
BITMAP
07FFFF
07FFFF
07FFFF
07FFFF
07FFFF
F803E0
F803E0
F803E0
F803E0
F803E0
F803E0
F803E0
F803E0
F803E0
F803E0
F803E0
F803E0
F803E0
F803E0
F803E0
F803E0
F803E0
F803E0
F803E0
07FC00
07FC00
07FC00
07FC00
07FC00
ENDCHAR
STARTCHAR 03C4
ENCODING 964
SWIDTH 586 0
DWIDTH 34 0
BBX 24 34 5 0
BITMAP
07FC1F
07FC1F
07FC1F
07FC1F
07FC1F
F803E0
F803E0
F803E0
F803E0
F803E0
0003E0
0003E0
0003E0
0003E0
0003E0
0003E0
0003E0
0003E0
0003E0
0003E0
0003E0
0003E0
0003E0
0003E0
0003E0
0003E0
0003E0
0003E0
0003E0
0003E0
0003E0
0003E0
0003E0
0003E0
ENDCHAR
STARTCHAR 03C6
ENCODING 966
SWIDTH 586 0
DWIDTH 34 0
BBX 24 34 5 0
BITMAP
00001F
00001F
00001F
00001F
00001F
07FFE0
07FFE0
07FFE0
07FFE0
07FFE0
F803FF
F803FF
F803FF
F803FF
F803FF
F87C1F
F87C1F
F87C1F
F87C1F
FFFC1F
FFC01F
FFC01F
FFC01F
FFC01F
07FFE0
07FFE0
07FFE0
07FFE0
07FFE0
F80000
F80000
F80000
F80000
F80000
ENDCHAR
STARTCHAR 2022
ENCODING 8226
SWIDTH 586 0
DWIDTH 34 0
BBX 5 9 14 10
BITMAP
F8
F8
F8
F8
F8
F8
F8
F8
F8
ENDCHAR
STARTCHAR 203C
ENCODING 8252
SWIDTH 586 0
DWIDTH 34 0
BBX 19 34 10 0
BITMAP
F803E0
F803E0
F803E0
F803E0
F803E0
F803E0
F803E0
F803E0
F803E0
F803E0
F803E0
F803E0
F803E0
F803E0
F803E0
F803E0
F803E0
F803E0
F803E0
F803E0
F803E0
F803E0
F803E0
F803E0
000000
000000
000000
000000
000000
F803E0
F803E0
F803E0
F803E0
F803E0
ENDCHAR
STARTCHAR 207F
ENCODING 8319
SWIDTH 586 0
DWIDTH 34 0
BBX 24 29 5 5
BITMAP
F87FE0
F87FE0
F87FE0
F87FE0
F87FE0
07C01F
07C01F
07C01F
07C01F
07C01F
07C01F
07C01F
07C01F
07C01F
07C01F
07C01F
07C01F
07C01F
07C01F
07C01F
07C01F
07C01F
07C01F
07C01F
07C01F
07C01F
07C01F
07C01F
07C01F
ENDCHAR
STARTCHAR 20A7
ENCODING 8359
SWIDTH 586 0
DWIDTH 34 0
BBX 24 34 5 0
BITMAP
FFFFE0
FFFFE0
FFFFE0
FFFFE0
FFFFE0
F8001F
F8001F
F8001F
F8001F
F8001F
FFFFFF
FFFFFF
FFFFFF
FFFFFF
FFFFFF
F803E0
F803E0
F803E0
F803E0
F87FFF
F87FFF
F87FFF
F87FFF
F87FFF
F803E0
F803E0
F803E0
F803E0
F803E0
F803FF
F803FF
F803FF
F803FF
F803FF
ENDCHAR
STARTCHAR 2190
ENCODING 8592
SWIDTH 586 0
DWIDTH 34 0
BBX 24 24 5 5
BITMAP
007C00
007C00
007C00
007C00
007C00
07FC00
07FC00
07FC00
07FC00
07FC00
FFFFFF
FFFFFF
FFFFFF
FFFFFF
FFFFFF
07FC00
07FC00
07FC00
07FC00
007C00
007C00
007C00
007C00
007C00
ENDCHAR
STARTCHAR 2191
ENCODING 8593
SWIDTH 586 0
DWIDTH 34 0
BBX 24 34 5 0
BITMAP
007C00
007C00
007C00
007C00
007C00
07FFE0
07FFE0
07FFE0
07FFE0
07FFE0
FFFFFF
FFFFFF
FFFFFF
FFFFFF
FFFFFF
007C00
007C00
007C00
007C00
007C00
007C00
007C00
007C00
007C00
007C00
007C00
007C00
007C00
007C00
007C00
007C00
007C00
007C00
007C00
ENDCHAR
STARTCHAR 2192
ENCODING 8594
SWIDTH 586 0
DWIDTH 34 0
BBX 24 24 5 5
BITMAP
007C00
007C00
007C00
007C00
007C00
007FE0
007FE0
007FE0
007FE0
007FE0
FFFFFF
FFFFFF
FFFFFF
FFFFFF
FFFFFF
007FE0
007FE0
007FE0
007FE0
007C00
007C00
007C00
007C00
007C00
ENDCHAR
STARTCHAR 2193
ENCODING 8595
SWIDTH 586 0
DWIDTH 34 0
BBX 24 34 5 0
BITMAP
007C00
007C00
007C00
007C00
007C00
007C00
007C00
007C00
007C00
007C00
007C00
007C00
007C00
007C00
007C00
007C00
007C00
007C00
007C00
FFFFFF
FFFFFF
FFFFFF
FFFFFF
FFFFFF
07FFE0
07FFE0
07FFE0
07FFE0
07FFE0
007C00
007C00
007C00
007C00
007C00
ENDCHAR
STARTCHAR 2194
ENCODING 8596
SWIDTH 586 0
DWIDTH 34 0
BBX 24 14 5 10
BITMAP
07C3E0
07C3E0
07C3E0
07C3E0
07C3E0
FFFFFF
FFFFFF
FFFFFF
FFFFFF
FFFFFF
07C3E0
07C3E0
07C3E0
07C3E0
ENDCHAR
STARTCHAR 2195
ENCODING 8597
SWIDTH 586 0
DWIDTH 34 0
BBX 24 34 5 0
BITMAP
007C00
007C00
007C00
007C00
007C00
07FFE0
07FFE0
07FFE0
07FFE0
07FFE0
FFFFFF
FFFFFF
FFFFFF
FFFFFF
FFFFFF
007C00
007C00
007C00
007C00
FFFFFF
FFFFFF
FFFFFF
FFFFFF
FFFFFF
07FFE0
07FFE0
07FFE0
07FFE0
07FFE0
007C00
007C00
007C00
007C00
007C00
ENDCHAR
STARTCHAR 21A8
ENCODING 8616
SWIDTH 586 0
DWIDTH 34 0
BBX 24 34 5 0
BITMAP
007C00
007C00
007C00
007C00
007C00
07FFE0
07FFE0
07FFE0
07FFE0
07FFE0
FFFFFF
FFFFFF
FFFFFF
FFFFFF
FFFFFF
007C00
007C00
007C00
007C00
FFFFFF
FFFFFF
FFFFFF
FFFFFF
FFFFFF
07FFE0
07FFE0
07FFE0
07FFE0
07FFE0
FFFFFF
FFFFFF
FFFFFF
FFFFFF
FFFFFF
ENDCHAR
STARTCHAR 2219
ENCODING 8729
SWIDTH 586 0
DWIDTH 34 0
BBX 19 14 10 10
BITMAP
0FFC00
0FFC00
0FFC00
0FFC00
0FFC00
FFFFE0
FFFFE0
FFFFE0
FFFFE0
FFFFE0
0FFC00
0FFC00
0FFC00
0FFC00
ENDCHAR
STARTCHAR 221A
ENCODING 8730
SWIDTH 586 0
DWIDTH 34 0
BBX 24 34 5 0
BITMAP
0003FF
0003FF
0003FF
0003FF
0003FF
0003E0
0003E0
0003E0
0003E0
0003E0
0003E0
0003E0
0003E0
0003E0
0003E0
0003E0
0003E0
0003E0
0003E0
F803E0
F803E0
F803E0
F803E0
F803E0
07C3E0
07C3E0
07C3E0
07C3E0
07C3E0
007FE0
007FE0
007FE0
007FE0
007FE0
ENDCHAR
STARTCHAR 221E
ENCODING 8734
SWIDTH 586 0
DWIDTH 34 0
BBX 29 24 5 0
BITMAP
07FFFF00
07FFFF00
07FFFF00
07FFFF00
07FFFF00
F80000F8
F80000F8
F80000F8
F80000F8
FFFFFFF8
07FFFF00
07FFFF00
07FFFF00
07FFFF00
F80000F8
F80000F8
F80000F8
F80000F8
F80000F8
07FFFF00
07FFFF00
07FFFF00
07FFFF00
07FFFF00
ENDCHAR
STARTCHAR 221F
ENCODING 8735
SWIDTH 586 0
DWIDTH 34 0
BBX 24 14 5 10
BITMAP
F80000
F80000
F80000
F80000
F80000
F80000
F80000
F80000
F80000
FFFFFF
FFFFFF
FFFFFF
FFFFFF
FFFFFF
ENDCHAR
STARTCHAR 2229
ENCODING 8745
SWIDTH 586 0
DWIDTH 34 0
BBX 29 34 5 0
BITMAP
07FFFF00
07FFFF00
07FFFF00
07FFFF00
07FFFF00
F80000F8
F80000F8
F80000F8
F80000F8
F80000F8
F80000F8
F80000F8
F80000F8
F80000F8
F80000F8
F80000F8
F80000F8
F80000F8
F80000F8
F80000F8
F80000F8
F80000F8
F80000F8
F80000F8
F80000F8
F80000F8
F80000F8
F80000F8
F80000F8
F80000F8
F80000F8
F80000F8
F80000F8
F80000F8
ENDCHAR
STARTCHAR 2248
ENCODING 8776
SWIDTH 586 0
DWIDTH 34 0
BBX 24 24 5 0
BITMAP
07FC1F
07FC1F
07FC1F
07FC1F
07FC1F
F803E0
F803E0
F803E0
F803E0
F803E0
000000
000000
000000
000000
07FC1F
07FC1F
07FC1F
07FC1F
07FC1F
F803E0
F803E0
F803E0
F803E0
F803E0
ENDCHAR
STARTCHAR 2261
ENCODING 8801
SWIDTH 586 0
DWIDTH 34 0
BBX 24 24 5 5
BITMAP
FFFFFF
FFFFFF
FFFFFF
FFFFFF
FFFFFF
000000
000000
000000
000000
000000
FFFFFF
FFFFFF
FFFFFF
FFFFFF
FFFFFF
000000
000000
000000
000000
FFFFFF
FFFFFF
FFFFFF
FFFFFF
FFFFFF
ENDCHAR
STARTCHAR 2264
ENCODING 8804
SWIDTH 586 0
DWIDTH 34 0
BBX 24 34 5 0
BITMAP
0003E0
0003E0
0003E0
0003E0
0003E0
007C00
007C00
007C00
007C00
007C00
07C000
07C000
07C000
07C000
07C000
007C00
007C00
007C00
007C00
007FE0
0003E0
0003E0
0003E0
0003E0
000000
000000
000000
000000
000000
FFFFFF
FFFFFF
FFFFFF
FFFFFF
FFFFFF
ENDCHAR
STARTCHAR 2265
ENCODING 8805
SWIDTH 586 0
DWIDTH 34 0
BBX 24 34 5 0
BITMAP
07C000
07C000
07C000
07C000
07C000
007C00
007C00
007C00
007C00
007C00
0003E0
0003E0
0003E0
0003E0
0003E0
007C00
007C00
007C00
007C00
07FC00
07C000
07C000
07C000
07C000
000000
000000
000000
000000
000000
FFFFFF
FFFFFF
FFFFFF
FFFFFF
FFFFFF
ENDCHAR
STARTCHAR 2302
ENCODING 8962
SWIDTH 586 0
DWIDTH 34 0
BBX 24 24 5 0
BITMAP
007C00
007C00
007C00
007C00
007C00
07C3E0
07C3E0
07C3E0
07C3E0
FFC3FF
F8001F
F8001F
F8001F
F8001F
F8001F
F8001F
F8001F
F8001F
F8001F
FFFFFF
FFFFFF
FFFFFF
FFFFFF
FFFFFF
ENDCHAR
STARTCHAR 2310
ENCODING 8976
SWIDTH 586 0
DWIDTH 34 0
BBX 24 15 5 0
BITMAP
FFFFFF
FFFFFF
FFFFFF
FFFFFF
FFFFFF
F80000
F80000
F80000
F80000
F80000
F80000
F80000
F80000
F80000
F80000
ENDCHAR
STARTCHAR 2320
ENCODING 8992
SWIDTH 586 0
DWIDTH 34 0
BBX 19 34 10 0
BITMAP
0FFC00
0FFC00
0FFC00
0FFC00
0FFC00
F803E0
F803E0
F803E0
F803E0
F803E0
F80000
F80000
F80000
F80000
F80000
F80000
F80000
F80000
F80000
F80000
F80000
F80000
F80000
F80000
F80000
F80000
F80000
F80000
F80000
F80000
F80000
F80000
F80000
F80000
ENDCHAR
STARTCHAR 2321
ENCODING 8993
SWIDTH 586 0
DWIDTH 34 0
BBX 19 34 10 0
BITMAP
0003E0
0003E0
0003E0
0003E0
0003E0
0003E0
0003E0
0003E0
0003E0
0003E0
0003E0
0003E0
0003E0
0003E0
0003E0
0003E0
0003E0
0003E0
0003E0
0003E0
0003E0
0003E0
0003E0
0003E0
F803E0
F803E0
F803E0
F803E0
F803E0
0FFC00
0FFC00
0FFC00
0FFC00
0FFC00
ENDCHAR
STARTCHAR 2500
ENCODING 9472
SWIDTH 586 0
DWIDTH 34 0
BBX 34 5 0 10
BITMAP
FFFFFFFFC0
FFFFFFFFC0
FFFFFFFFC0
FFFFFFFFC0
FFFFFFFFC0
ENDCHAR
STARTCHAR 2502
ENCODING 9474
SWIDTH 586 0
DWIDTH 34 0
BBX 5 44 14 -10
BITMAP
F8
F8
F8
F8
F8
F8
F8
F8
F8
F8
F8
F8
F8
F8
F8
F8
F8
F8
F8
F8
F8
F8
F8
F8
F8
F8
F8
F8
F8
F8
F8
F8
F8
F8
F8
F8
F8
F8
F8
F8
F8
F8
F8
F8
ENDCHAR
STARTCHAR 250C
ENCODING 9484
SWIDTH 586 0
DWIDTH 34 0
BBX 20 25 14 -10
BITMAP
FFFFF0
FFFFF0
FFFFF0
FFFFF0
FFFFF0
F80000
F80000
F80000
F80000
F80000
F80000
F80000
F80000
F80000
F80000
F80000
F80000
F80000
F80000
F80000
F80000
F80000
F80000
F80000
F80000
ENDCHAR
STARTCHAR 2510
ENCODING 9488
SWIDTH 586 0
DWIDTH 34 0
BBX 19 25 0 -10
BITMAP
FFFFE0
FFFFE0
FFFFE0
FFFFE0
FFFFE0
0003E0
0003E0
0003E0
0003E0
0003E0
0003E0
0003E0
0003E0
0003E0
0003E0
0003E0
0003E0
0003E0
0003E0
0003E0
0003E0
0003E0
0003E0
0003E0
0003E0
ENDCHAR
STARTCHAR 2514
ENCODING 9492
SWIDTH 586 0
DWIDTH 34 0
BBX 20 24 14 10
BITMAP
F80000
F80000
F80000
F80000
F80000
F80000
F80000
F80000
F80000
F80000
F80000
F80000
F80000
F80000
F80000
F80000
F80000
F80000
F80000
FFFFF0
FFFFF0
FFFFF0
FFFFF0
FFFFF0
ENDCHAR
STARTCHAR 2518
ENCODING 9496
SWIDTH 586 0
DWIDTH 34 0
BBX 19 24 0 10
BITMAP
0003E0
0003E0
0003E0
0003E0
0003E0
0003E0
0003E0
0003E0
0003E0
0003E0
0003E0
0003E0
0003E0
0003E0
0003E0
0003E0
0003E0
0003E0
0003E0
FFFFE0
FFFFE0
FFFFE0
FFFFE0
FFFFE0
ENDCHAR
STARTCHAR 251C
ENCODING 9500
SWIDTH 586 0
DWIDTH 34 0
BBX 20 44 14 -10
BITMAP
F80000
F80000
F80000
F80000
F80000
F80000
F80000
F80000
F80000
F80000
F80000
F80000
F80000
F80000
F80000
F80000
F80000
F80000
F80000
FFFFF0
FFFFF0
FFFFF0
FFFFF0
FFFFF0
F80000
F80000
F80000
F80000
F80000
F80000
F80000
F80000
F80000
F80000
F80000
F80000
F80000
F80000
F80000
F80000
F80000
F80000
F80000
F80000
ENDCHAR
STARTCHAR 2524
ENCODING 9508
SWIDTH 586 0
DWIDTH 34 0
BBX 19 44 0 -10
BITMAP
0003E0
0003E0
0003E0
0003E0
0003E0
0003E0
0003E0
0003E0
0003E0
0003E0
0003E0
0003E0
0003E0
0003E0
0003E0
0003E0
0003E0
0003E0
0003E0
FFFFE0
FFFFE0
FFFFE0
FFFFE0
FFFFE0
0003E0
0003E0
0003E0
0003E0
0003E0
0003E0
0003E0
0003E0
0003E0
0003E0
0003E0
0003E0
0003E0
0003E0
0003E0
0003E0
0003E0
0003E0
0003E0
0003E0
ENDCHAR
STARTCHAR 252C
ENCODING 9516
SWIDTH 586 0
DWIDTH 34 0
BBX 34 25 0 -10
BITMAP
FFFFFFFFC0
FFFFFFFFC0
FFFFFFFFC0
FFFFFFFFC0
FFFFFFFFC0
0003E00000
0003E00000
0003E00000
0003E00000
0003E00000
0003E00000
0003E00000
0003E00000
0003E00000
0003E00000
0003E00000
0003E00000
0003E00000
0003E00000
0003E00000
0003E00000
0003E00000
0003E00000
0003E00000
0003E00000
ENDCHAR
STARTCHAR 2534
ENCODING 9524
SWIDTH 586 0
DWIDTH 34 0
BBX 34 24 0 10
BITMAP
0003E00000
0003E00000
0003E00000
0003E00000
0003E00000
0003E00000
0003E00000
0003E00000
0003E00000
0003E00000
0003E00000
0003E00000
0003E00000
0003E00000
0003E00000
0003E00000
0003E00000
0003E00000
0003E00000
FFFFFFFFC0
FFFFFFFFC0
FFFFFFFFC0
FFFFFFFFC0
FFFFFFFFC0
ENDCHAR
STARTCHAR 253C
ENCODING 9532
SWIDTH 586 0
DWIDTH 34 0
BBX 34 44 0 -10
BITMAP
0003E00000
0003E00000
0003E00000
0003E00000
0003E00000
0003E00000
0003E00000
0003E00000
0003E00000
0003E00000
0003E00000
0003E00000
0003E00000
0003E00000
0003E00000
0003E00000
0003E00000
0003E00000
0003E00000
FFFFFFFFC0
FFFFFFFFC0
FFFFFFFFC0
FFFFFFFFC0
FFFFFFFFC0
0003E00000
0003E00000
0003E00000
0003E00000
0003E00000
0003E00000
0003E00000
0003E00000
0003E00000
0003E00000
0003E00000
0003E00000
0003E00000
0003E00000
0003E00000
0003E00000
0003E00000
0003E00000
0003E00000
0003E00000
ENDCHAR
STARTCHAR 2550
ENCODING 9552
SWIDTH 586 0
DWIDTH 34 0
BBX 34 14 0 5
BITMAP
FFFFFFFFC0
FFFFFFFFC0
FFFFFFFFC0
FFFFFFFFC0
FFFFFFFFC0
0000000000
0000000000
0000000000
0000000000
FFFFFFFFC0
FFFFFFFFC0
FFFFFFFFC0
FFFFFFFFC0
FFFFFFFFC0
ENDCHAR
STARTCHAR 2551
ENCODING 9553
SWIDTH 586 0
DWIDTH 34 0
BBX 15 44 14 -10
BITMAP
F83E
F83E
F83E
F83E
F83E
F83E
F83E
F83E
F83E
F83E
F83E
F83E
F83E
F83E
F83E
F83E
F83E
F83E
F83E
F83E
F83E
F83E
F83E
F83E
F83E
F83E
F83E
F83E
F83E
F83E
F83E
F83E
F83E
F83E
F83E
F83E
F83E
F83E
F83E
F83E
F83E
F83E
F83E
F83E
ENDCHAR
STARTCHAR 2552
ENCODING 9554
SWIDTH 586 0
DWIDTH 34 0
BBX 20 29 14 -10
BITMAP
FFFFF0
FFFFF0
FFFFF0
FFFFF0
FFFFF0
F80000
F80000
F80000
F80000
FFFFF0
FFFFF0
FFFFF0
FFFFF0
FFFFF0
F80000
F80000
F80000
F80000
F80000
F80000
F80000
F80000
F80000
F80000
F80000
F80000
F80000
F80000
F80000
ENDCHAR
STARTCHAR 2553
ENCODING 9555
SWIDTH 586 0
DWIDTH 34 0
BBX 20 25 14 -10
BITMAP
FFFFF0
FFFFF0
FFFFF0
FFFFF0
FFFFF0
F83E00
F83E00
F83E00
F83E00
F83E00
F83E00
F83E00
F83E00
F83E00
F83E00
F83E00
F83E00
F83E00
F83E00
F83E00
F83E00
F83E00
F83E00
F83E00
F83E00
ENDCHAR
STARTCHAR 2554
ENCODING 9556
SWIDTH 586 0
DWIDTH 34 0
BBX 20 29 14 -10
BITMAP
FFFFF0
FFFFF0
FFFFF0
FFFFF0
FFFFF0
F80000
F80000
F80000
F80000
F83FF0
F83FF0
F83FF0
F83FF0
F83FF0
F83E00
F83E00
F83E00
F83E00
F83E00
F83E00
F83E00
F83E00
F83E00
F83E00
F83E00
F83E00
F83E00
F83E00
F83E00
ENDCHAR
STARTCHAR 2555
ENCODING 9557
SWIDTH 586 0
DWIDTH 34 0
BBX 19 29 0 -10
BITMAP
FFFFE0
FFFFE0
FFFFE0
FFFFE0
FFFFE0
0003E0
0003E0
0003E0
0003E0
FFFFE0
FFFFE0
FFFFE0
FFFFE0
FFFFE0
0003E0
0003E0
0003E0
0003E0
0003E0
0003E0
0003E0
0003E0
0003E0
0003E0
0003E0
0003E0
0003E0
0003E0
0003E0
ENDCHAR
STARTCHAR 2556
ENCODING 9558
SWIDTH 586 0
DWIDTH 34 0
BBX 29 25 0 -10
BITMAP
FFFFFFF8
FFFFFFF8
FFFFFFF8
FFFFFFF8
FFFFFFF8
0003E0F8
0003E0F8
0003E0F8
0003E0F8
0003E0F8
0003E0F8
0003E0F8
0003E0F8
0003E0F8
0003E0F8
0003E0F8
0003E0F8
0003E0F8
0003E0F8
0003E0F8
0003E0F8
0003E0F8
0003E0F8
0003E0F8
0003E0F8
ENDCHAR
STARTCHAR 2557
ENCODING 9559
SWIDTH 586 0
DWIDTH 34 0
BBX 29 29 0 -10
BITMAP
FFFFFFF8
FFFFFFF8
FFFFFFF8
FFFFFFF8
FFFFFFF8
000000F8
000000F8
000000F8
000000F8
FFFFE0F8
FFFFE0F8
FFFFE0F8
FFFFE0F8
FFFFE0F8
0003E0F8
0003E0F8
0003E0F8
0003E0F8
0003E0F8
0003E0F8
0003E0F8
0003E0F8
0003E0F8
0003E0F8
0003E0F8
0003E0F8
0003E0F8
0003E0F8
0003E0F8
ENDCHAR
STARTCHAR 2558
ENCODING 9560
SWIDTH 586 0
DWIDTH 34 0
BBX 20 29 14 5
BITMAP
F80000
F80000
F80000
F80000
F80000
F80000
F80000
F80000
F80000
F80000
F80000
F80000
F80000
F80000
F80000
FFFFF0
FFFFF0
FFFFF0
FFFFF0
FFFFF0
F80000
F80000
F80000
F80000
FFFFF0
FFFFF0
FFFFF0
FFFFF0
FFFFF0
ENDCHAR
STARTCHAR 2559
ENCODING 9561
SWIDTH 586 0
DWIDTH 34 0
BBX 20 24 14 10
BITMAP
F83E00
F83E00
F83E00
F83E00
F83E00
F83E00
F83E00
F83E00
F83E00
F83E00
F83E00
F83E00
F83E00
F83E00
F83E00
F83E00
F83E00
F83E00
F83E00
FFFFF0
FFFFF0
FFFFF0
FFFFF0
FFFFF0
ENDCHAR
STARTCHAR 255A
ENCODING 9562
SWIDTH 586 0
DWIDTH 34 0
BBX 20 29 14 5
BITMAP
F83E00
F83E00
F83E00
F83E00
F83E00
F83E00
F83E00
F83E00
F83E00
F83E00
F83E00
F83E00
F83E00
F83E00
F83E00
F83FF0
F83FF0
F83FF0
F83FF0
F83FF0
F80000
F80000
F80000
F80000
FFFFF0
FFFFF0
FFFFF0
FFFFF0
FFFFF0
ENDCHAR
STARTCHAR 255B
ENCODING 9563
SWIDTH 586 0
DWIDTH 34 0
BBX 19 29 0 5
BITMAP
0003E0
0003E0
0003E0
0003E0
0003E0
0003E0
0003E0
0003E0
0003E0
0003E0
0003E0
0003E0
0003E0
0003E0
0003E0
FFFFE0
FFFFE0
FFFFE0
FFFFE0
FFFFE0
0003E0
0003E0
0003E0
0003E0
FFFFE0
FFFFE0
FFFFE0
FFFFE0
FFFFE0
ENDCHAR
STARTCHAR 255C
ENCODING 9564
SWIDTH 586 0
DWIDTH 34 0
BBX 29 24 0 10
BITMAP
0003E0F8
0003E0F8
0003E0F8
0003E0F8
0003E0F8
0003E0F8
0003E0F8
0003E0F8
0003E0F8
0003E0F8
0003E0F8
0003E0F8
0003E0F8
0003E0F8
0003E0F8
0003E0F8
0003E0F8
0003E0F8
0003E0F8
FFFFFFF8
FFFFFFF8
FFFFFFF8
FFFFFFF8
FFFFFFF8
ENDCHAR
STARTCHAR 255D
ENCODING 9565
SWIDTH 586 0
DWIDTH 34 0
BBX 29 29 0 5
BITMAP
0003E0F8
0003E0F8
0003E0F8
0003E0F8
0003E0F8
0003E0F8
0003E0F8
0003E0F8
0003E0F8
0003E0F8
0003E0F8
0003E0F8
0003E0F8
0003E0F8
0003E0F8
FFFFE0F8
FFFFE0F8
FFFFE0F8
FFFFE0F8
FFFFE0F8
000000F8
000000F8
000000F8
000000F8
FFFFFFF8
FFFFFFF8
FFFFFFF8
FFFFFFF8
FFFFFFF8
ENDCHAR
STARTCHAR 255E
ENCODING 9566
SWIDTH 586 0
DWIDTH 34 0
BBX 20 44 14 -10
BITMAP
F80000
F80000
F80000
F80000
F80000
F80000
F80000
F80000
F80000
F80000
F80000
F80000
F80000
F80000
F80000
FFFFF0
FFFFF0
FFFFF0
FFFFF0
FFFFF0
F80000
F80000
F80000
F80000
FFFFF0
FFFFF0
FFFFF0
FFFFF0
FFFFF0
F80000
F80000
F80000
F80000
F80000
F80000
F80000
F80000
F80000
F80000
F80000
F80000
F80000
F80000
F80000
ENDCHAR
STARTCHAR 255F
ENCODING 9567
SWIDTH 586 0
DWIDTH 34 0
BBX 20 44 14 -10
BITMAP
F83E00
F83E00
F83E00
F83E00
F83E00
F83E00
F83E00
F83E00
F83E00
F83E00
F83E00
F83E00
F83E00
F83E00
F83E00
F83E00
F83E00
F83E00
F83E00
F83FF0
F83FF0
F83FF0
F83FF0
F83FF0
F83E00
F83E00
F83E00
F83E00
F83E00
F83E00
F83E00
F83E00
F83E00
F83E00
F83E00
F83E00
F83E00
F83E00
F83E00
F83E00
F83E00
F83E00
F83E00
F83E00
ENDCHAR
STARTCHAR 2560
ENCODING 9568
SWIDTH 586 0
DWIDTH 34 0
BBX 20 44 14 -10
BITMAP
F83E00
F83E00
F83E00
F83E00
F83E00
F83E00
F83E00
F83E00
F83E00
F83E00
F83E00
F83E00
F83E00
F83E00
F83E00
F83FF0
F83FF0
F83FF0
F83FF0
F83FF0
F80000
F80000
F80000
F80000
F83FF0
F83FF0
F83FF0
F83FF0
F83FF0
F83E00
F83E00
F83E00
F83E00
F83E00
F83E00
F83E00
F83E00
F83E00
F83E00
F83E00
F83E00
F83E00
F83E00
F83E00
ENDCHAR
STARTCHAR 2561
ENCODING 9569
SWIDTH 586 0
DWIDTH 34 0
BBX 19 44 0 -10
BITMAP
0003E0
0003E0
0003E0
0003E0
0003E0
0003E0
0003E0
0003E0
0003E0
0003E0
0003E0
0003E0
0003E0
0003E0
0003E0
FFFFE0
FFFFE0
FFFFE0
FFFFE0
FFFFE0
0003E0
0003E0
0003E0
0003E0
FFFFE0
FFFFE0
FFFFE0
FFFFE0
FFFFE0
0003E0
0003E0
0003E0
0003E0
0003E0
0003E0
0003E0
0003E0
0003E0
0003E0
0003E0
0003E0
0003E0
0003E0
0003E0
ENDCHAR
STARTCHAR 2562
ENCODING 9570
SWIDTH 586 0
DWIDTH 34 0
BBX 29 44 0 -10
BITMAP
0003E0F8
0003E0F8
0003E0F8
0003E0F8
0003E0F8
0003E0F8
0003E0F8
0003E0F8
0003E0F8
0003E0F8
0003E0F8
0003E0F8
0003E0F8
0003E0F8
0003E0F8
0003E0F8
0003E0F8
0003E0F8
0003E0F8
FFFFE0F8
FFFFE0F8
FFFFE0F8
FFFFE0F8
FFFFE0F8
0003E0F8
0003E0F8
0003E0F8
0003E0F8
0003E0F8
0003E0F8
0003E0F8
0003E0F8
0003E0F8
0003E0F8
0003E0F8
0003E0F8
0003E0F8
0003E0F8
0003E0F8
0003E0F8
0003E0F8
0003E0F8
0003E0F8
0003E0F8
ENDCHAR
STARTCHAR 2563
ENCODING 9571
SWIDTH 586 0
DWIDTH 34 0
BBX 29 44 0 -10
BITMAP
0003E0F8
0003E0F8
0003E0F8
0003E0F8
0003E0F8
0003E0F8
0003E0F8
0003E0F8
0003E0F8
0003E0F8
0003E0F8
0003E0F8
0003E0F8
0003E0F8
0003E0F8
FFFFE0F8
FFFFE0F8
FFFFE0F8
FFFFE0F8
FFFFE0F8
000000F8
000000F8
000000F8
000000F8
FFFFE0F8
FFFFE0F8
FFFFE0F8
FFFFE0F8
FFFFE0F8
0003E0F8
0003E0F8
0003E0F8
0003E0F8
0003E0F8
0003E0F8
0003E0F8
0003E0F8
0003E0F8
0003E0F8
0003E0F8
0003E0F8
0003E0F8
0003E0F8
0003E0F8
ENDCHAR
STARTCHAR 2564
ENCODING 9572
SWIDTH 586 0
DWIDTH 34 0
BBX 34 29 0 -10
BITMAP
FFFFFFFFC0
FFFFFFFFC0
FFFFFFFFC0
FFFFFFFFC0
FFFFFFFFC0
0000000000
0000000000
0000000000
0000000000
FFFFFFFFC0
FFFFFFFFC0
FFFFFFFFC0
FFFFFFFFC0
FFFFFFFFC0
0003E00000
0003E00000
0003E00000
0003E00000
0003E00000
0003E00000
0003E00000
0003E00000
0003E00000
0003E00000
0003E00000
0003E00000
0003E00000
0003E00000
0003E00000
ENDCHAR
STARTCHAR 2565
ENCODING 9573
SWIDTH 586 0
DWIDTH 34 0
BBX 34 25 0 -10
BITMAP
FFFFFFFFC0
FFFFFFFFC0
FFFFFFFFC0
FFFFFFFFC0
FFFFFFFFC0
0003E0F800
0003E0F800
0003E0F800
0003E0F800
0003E0F800
0003E0F800
0003E0F800
0003E0F800
0003E0F800
0003E0F800
0003E0F800
0003E0F800
0003E0F800
0003E0F800
0003E0F800
0003E0F800
0003E0F800
0003E0F800
0003E0F800
0003E0F800
ENDCHAR
STARTCHAR 2566
ENCODING 9574
SWIDTH 586 0
DWIDTH 34 0
BBX 34 29 0 -10
BITMAP
FFFFFFFFC0
FFFFFFFFC0
FFFFFFFFC0
FFFFFFFFC0
FFFFFFFFC0
0000000000
0000000000
0000000000
0000000000
FFFFE0FFC0
FFFFE0FFC0
FFFFE0FFC0
FFFFE0FFC0
FFFFE0FFC0
0003E0F800
0003E0F800
0003E0F800
0003E0F800
0003E0F800
0003E0F800
0003E0F800
0003E0F800
0003E0F800
0003E0F800
0003E0F800
0003E0F800
0003E0F800
0003E0F800
0003E0F800
ENDCHAR
STARTCHAR 2567
ENCODING 9575
SWIDTH 586 0
DWIDTH 34 0
BBX 34 29 0 5
BITMAP
0003E00000
0003E00000
0003E00000
0003E00000
0003E00000
0003E00000
0003E00000
0003E00000
0003E00000
0003E00000
0003E00000
0003E00000
0003E00000
0003E00000
0003E00000
FFFFFFFFC0
FFFFFFFFC0
FFFFFFFFC0
FFFFFFFFC0
FFFFFFFFC0
0000000000
0000000000
0000000000
0000000000
FFFFFFFFC0
FFFFFFFFC0
FFFFFFFFC0
FFFFFFFFC0
FFFFFFFFC0
ENDCHAR
STARTCHAR 2568
ENCODING 9576
SWIDTH 586 0
DWIDTH 34 0
BBX 34 24 0 10
BITMAP
0003E0F800
0003E0F800
0003E0F800
0003E0F800
0003E0F800
0003E0F800
0003E0F800
0003E0F800
0003E0F800
0003E0F800
0003E0F800
0003E0F800
0003E0F800
0003E0F800
0003E0F800
0003E0F800
0003E0F800
0003E0F800
0003E0F800
FFFFFFFFC0
FFFFFFFFC0
FFFFFFFFC0
FFFFFFFFC0
FFFFFFFFC0
ENDCHAR
STARTCHAR 2569
ENCODING 9577
SWIDTH 586 0
DWIDTH 34 0
BBX 34 29 0 5
BITMAP
0003E0F800
0003E0F800
0003E0F800
0003E0F800
0003E0F800
0003E0F800
0003E0F800
0003E0F800
0003E0F800
0003E0F800
0003E0F800
0003E0F800
0003E0F800
0003E0F800
0003E0F800
FFFFE0FFC0
FFFFE0FFC0
FFFFE0FFC0
FFFFE0FFC0
FFFFE0FFC0
0000000000
0000000000
0000000000
0000000000
FFFFFFFFC0
FFFFFFFFC0
FFFFFFFFC0
FFFFFFFFC0
FFFFFFFFC0
ENDCHAR
STARTCHAR 256A
ENCODING 9578
SWIDTH 586 0
DWIDTH 34 0
BBX 34 44 0 -10
BITMAP
0003E00000
0003E00000
0003E00000
0003E00000
0003E00000
0003E00000
0003E00000
0003E00000
0003E00000
0003E00000
0003E00000
0003E00000
0003E00000
0003E00000
0003E00000
FFFFFFFFC0
FFFFFFFFC0
FFFFFFFFC0
FFFFFFFFC0
FFFFFFFFC0
0003E00000
0003E00000
0003E00000
0003E00000
FFFFFFFFC0
FFFFFFFFC0
FFFFFFFFC0
FFFFFFFFC0
FFFFFFFFC0
0003E00000
0003E00000
0003E00000
0003E00000
0003E00000
0003E00000
0003E00000
0003E00000
0003E00000
0003E00000
0003E00000
0003E00000
0003E00000
0003E00000
0003E00000
ENDCHAR
STARTCHAR 256B
ENCODING 9579
SWIDTH 586 0
DWIDTH 34 0
BBX 34 44 0 -10
BITMAP
0003E0F800
0003E0F800
0003E0F800
0003E0F800
0003E0F800
0003E0F800
0003E0F800
0003E0F800
0003E0F800
0003E0F800
0003E0F800
0003E0F800
0003E0F800
0003E0F800
0003E0F800
0003E0F800
0003E0F800
0003E0F800
0003E0F800
FFFFFFFFC0
FFFFFFFFC0
FFFFFFFFC0
FFFFFFFFC0
FFFFFFFFC0
0003E0F800
0003E0F800
0003E0F800
0003E0F800
0003E0F800
0003E0F800
0003E0F800
0003E0F800
0003E0F800
0003E0F800
0003E0F800
0003E0F800
0003E0F800
0003E0F800
0003E0F800
0003E0F800
0003E0F800
0003E0F800
0003E0F800
0003E0F800
ENDCHAR
STARTCHAR 256C
ENCODING 9580
SWIDTH 586 0
DWIDTH 34 0
BBX 34 44 0 -10
BITMAP
0003E0F800
0003E0F800
0003E0F800
0003E0F800
0003E0F800
0003E0F800
0003E0F800
0003E0F800
0003E0F800
0003E0F800
0003E0F800
0003E0F800
0003E0F800
0003E0F800
0003E0F800
FFFFE0FFC0
FFFFE0FFC0
FFFFE0FFC0
FFFFE0FFC0
FFFFE0FFC0
0000000000
0000000000
0000000000
0000000000
FFFFE0FFC0
FFFFE0FFC0
FFFFE0FFC0
FFFFE0FFC0
FFFFE0FFC0
0003E0F800
0003E0F800
0003E0F800
0003E0F800
0003E0F800
0003E0F800
0003E0F800
0003E0F800
0003E0F800
0003E0F800
0003E0F800
0003E0F800
0003E0F800
0003E0F800
0003E0F800
ENDCHAR
STARTCHAR 2580
ENCODING 9600
SWIDTH 586 0
DWIDTH 34 0
BBX 34 24 0 10
BITMAP
FFFFFFFFC0
FFFFFFFFC0
FFFFFFFFC0
FFFFFFFFC0
FFFFFFFFC0
FFFFFFFFC0
FFFFFFFFC0
FFFFFFFFC0
FFFFFFFFC0
FFFFFFFFC0
FFFFFFFFC0
FFFFFFFFC0
FFFFFFFFC0
FFFFFFFFC0
FFFFFFFFC0
FFFFFFFFC0
FFFFFFFFC0
FFFFFFFFC0
FFFFFFFFC0
FFFFFFFFC0
FFFFFFFFC0
FFFFFFFFC0
FFFFFFFFC0
FFFFFFFFC0
ENDCHAR
STARTCHAR 2584
ENCODING 9604
SWIDTH 586 0
DWIDTH 34 0
BBX 34 25 0 -10
BITMAP
FFFFFFFFC0
FFFFFFFFC0
FFFFFFFFC0
FFFFFFFFC0
FFFFFFFFC0
FFFFFFFFC0
FFFFFFFFC0
FFFFFFFFC0
FFFFFFFFC0
FFFFFFFFC0
FFFFFFFFC0
FFFFFFFFC0
FFFFFFFFC0
FFFFFFFFC0
FFFFFFFFC0
FFFFFFFFC0
FFFFFFFFC0
FFFFFFFFC0
FFFFFFFFC0
FFFFFFFFC0
FFFFFFFFC0
FFFFFFFFC0
FFFFFFFFC0
FFFFFFFFC0
FFFFFFFFC0
ENDCHAR
STARTCHAR 2588
ENCODING 9608
SWIDTH 586 0
DWIDTH 34 0
BBX 34 44 0 -10
BITMAP
FFFFFFFFC0
FFFFFFFFC0
FFFFFFFFC0
FFFFFFFFC0
FFFFFFFFC0
FFFFFFFFC0
FFFFFFFFC0
FFFFFFFFC0
FFFFFFFFC0
FFFFFFFFC0
FFFFFFFFC0
FFFFFFFFC0
FFFFFFFFC0
FFFFFFFFC0
FFFFFFFFC0
FFFFFFFFC0
FFFFFFFFC0
FFFFFFFFC0
FFFFFFFFC0
FFFFFFFFC0
FFFFFFFFC0
FFFFFFFFC0
FFFFFFFFC0
FFFFFFFFC0
FFFFFFFFC0
FFFFFFFFC0
FFFFFFFFC0
FFFFFFFFC0
FFFFFFFFC0
FFFFFFFFC0
FFFFFFFFC0
FFFFFFFFC0
FFFFFFFFC0
FFFFFFFFC0
FFFFFFFFC0
FFFFFFFFC0
FFFFFFFFC0
FFFFFFFFC0
FFFFFFFFC0
FFFFFFFFC0
FFFFFFFFC0
FFFFFFFFC0
FFFFFFFFC0
FFFFFFFFC0
ENDCHAR
STARTCHAR 258C
ENCODING 9612
SWIDTH 586 0
DWIDTH 34 0
BBX 19 44 0 -10
BITMAP
FFFFE0
FFFFE0
FFFFE0
FFFFE0
FFFFE0
FFFFE0
FFFFE0
FFFFE0
FFFFE0
FFFFE0
FFFFE0
FFFFE0
FFFFE0
FFFFE0
FFFFE0
FFFFE0
FFFFE0
FFFFE0
FFFFE0
FFFFE0
FFFFE0
FFFFE0
FFFFE0
FFFFE0
FFFFE0
FFFFE0
FFFFE0
FFFFE0
FFFFE0
FFFFE0
FFFFE0
FFFFE0
FFFFE0
FFFFE0
FFFFE0
FFFFE0
FFFFE0
FFFFE0
FFFFE0
FFFFE0
FFFFE0
FFFFE0
FFFFE0
FFFFE0
ENDCHAR
STARTCHAR 2590
ENCODING 9616
SWIDTH 586 0
DWIDTH 34 0
BBX 15 44 19 -10
BITMAP
FFFE
FFFE
FFFE
FFFE
FFFE
FFFE
FFFE
FFFE
FFFE
FFFE
FFFE
FFFE
FFFE
FFFE
FFFE
FFFE
FFFE
FFFE
FFFE
FFFE
FFFE
FFFE
FFFE
FFFE
FFFE
FFFE
FFFE
FFFE
FFFE
FFFE
FFFE
FFFE
FFFE
FFFE
FFFE
FFFE
FFFE
FFFE
FFFE
FFFE
FFFE
FFFE
FFFE
FFFE
ENDCHAR
STARTCHAR 2591
ENCODING 9617
SWIDTH 586 0
DWIDTH 34 0
BBX 24 44 5 -10
BITMAP
007C00
007C00
007C00
007C00
007C00
F8001F
F8001F
F8001F
F8001F
F8001F
007C00
007C00
007C00
007C00
007C00
F8001F
F8001F
F8001F
F8001F
F87C1F
007C00
007C00
007C00
007C00
F8001F
F8001F
F8001F
F8001F
F8001F
007C00
007C00
007C00
007C00
007C00
F8001F
F8001F
F8001F
F8001F
F8001F
007C00
007C00
007C00
007C00
007C00
ENDCHAR
STARTCHAR 2592
ENCODING 9618
SWIDTH 586 0
DWIDTH 34 0
BBX 34 44 0 -10
BITMAP
07C3E0F800
07C3E0F800
07C3E0F800
07C3E0F800
07C3E0F800
F83E1F07C0
F83E1F07C0
F83E1F07C0
F83E1F07C0
F83E1F07C0
07C3E0F800
07C3E0F800
07C3E0F800
07C3E0F800
07C3E0F800
F83E1F07C0
F83E1F07C0
F83E1F07C0
F83E1F07C0
FFFFFFFFC0
07C3E0F800
07C3E0F800
07C3E0F800
07C3E0F800
F83E1F07C0
F83E1F07C0
F83E1F07C0
F83E1F07C0
F83E1F07C0
07C3E0F800
07C3E0F800
07C3E0F800
07C3E0F800
07C3E0F800
F83E1F07C0
F83E1F07C0
F83E1F07C0
F83E1F07C0
F83E1F07C0
07C3E0F800
07C3E0F800
07C3E0F800
07C3E0F800
07C3E0F800
ENDCHAR
STARTCHAR 2593
ENCODING 9619
SWIDTH 586 0
DWIDTH 34 0
BBX 34 44 0 -10
BITMAP
FFC3FFF800
FFC3FFF800
FFC3FFF800
FFC3FFF800
FFC3FFF800
07FFE0FFC0
07FFE0FFC0
07FFE0FFC0
07FFE0FFC0
07FFE0FFC0
FFC3FFF800
FFC3FFF800
FFC3FFF800
FFC3FFF800
FFC3FFF800
07FFE0FFC0
07FFE0FFC0
07FFE0FFC0
07FFE0FFC0
FFFFFFFFC0
FFC3FFF800
FFC3FFF800
FFC3FFF800
FFC3FFF800
07FFE0FFC0
07FFE0FFC0
07FFE0FFC0
07FFE0FFC0
07FFE0FFC0
FFC3FFF800
FFC3FFF800
FFC3FFF800
FFC3FFF800
FFC3FFF800
07FFE0FFC0
07FFE0FFC0
07FFE0FFC0
07FFE0FFC0
07FFE0FFC0
FFC3FFF800
FFC3FFF800
FFC3FFF800
FFC3FFF800
FFC3FFF800
ENDCHAR
STARTCHAR 25A0
ENCODING 9632
SWIDTH 586 0
DWIDTH 34 0
BBX 29 24 5 0
BITMAP
FFFFFFF8
FFFFFFF8
FFFFFFF8
FFFFFFF8
FFFFFFF8
FFFFFFF8
FFFFFFF8
FFFFFFF8
FFFFFFF8
FFFFFFF8
FFFFFFF8
FFFFFFF8
FFFFFFF8
FFFFFFF8
FFFFFFF8
FFFFFFF8
FFFFFFF8
FFFFFFF8
FFFFFFF8
FFFFFFF8
FFFFFFF8
FFFFFFF8
FFFFFFF8
FFFFFFF8
ENDCHAR
STARTCHAR 25AC
ENCODING 9644
SWIDTH 586 0
DWIDTH 34 0
BBX 24 10 5 5
BITMAP
FFFFFF
FFFFFF
FFFFFF
FFFFFF
FFFFFF
FFFFFF
FFFFFF
FFFFFF
FFFFFF
FFFFFF
ENDCHAR
STARTCHAR 25B2
ENCODING 9650
SWIDTH 586 0
DWIDTH 34 0
BBX 24 19 5 0
BITMAP
007C00
007C00
007C00
007C00
07FFE0
07FFE0
07FFE0
07FFE0
07FFE0
FFFFFF
FFFFFF
FFFFFF
FFFFFF
FFFFFF
FFFFFF
FFFFFF
FFFFFF
FFFFFF
FFFFFF
ENDCHAR
STARTCHAR 25BA
ENCODING 9658
SWIDTH 586 0
DWIDTH 34 0
BBX 24 34 5 0
BITMAP
F80000
F80000
F80000
F80000
F80000
FFC000
FFC000
FFC000
FFC000
FFC000
FFFC00
FFFC00
FFFC00
FFFC00
FFFC00
FFFFFF
FFFFFF
FFFFFF
FFFFFF
FFFFFF
FFFC00
FFFC00
FFFC00
FFFC00
FFC000
FFC000
FFC000
FFC000
FFC000
F80000
F80000
F80000
F80000
F80000
ENDCHAR
STARTCHAR 25BC
ENCODING 9660
SWIDTH 586 0
DWIDTH 34 0
BBX 24 19 5 0
BITMAP
FFFFFF
FFFFFF
FFFFFF
FFFFFF
FFFFFF
FFFFFF
FFFFFF
FFFFFF
FFFFFF
07FFE0
07FFE0
07FFE0
07FFE0
07FFE0
007C00
007C00
007C00
007C00
007C00
ENDCHAR
STARTCHAR 25C4
ENCODING 9668
SWIDTH 586 0
DWIDTH 34 0
BBX 24 34 5 0
BITMAP
00001F
00001F
00001F
00001F
00001F
0003FF
0003FF
0003FF
0003FF
0003FF
007FFF
007FFF
007FFF
007FFF
007FFF
FFFFFF
FFFFFF
FFFFFF
FFFFFF
FFFFFF
007FFF
007FFF
007FFF
007FFF
0003FF
0003FF
0003FF
0003FF
0003FF
00001F
00001F
00001F
00001F
00001F
ENDCHAR
STARTCHAR 25CB
ENCODING 9675
SWIDTH 586 0
DWIDTH 34 0
BBX 24 24 5 0
BITMAP
07FFE0
07FFE0
07FFE0
07FFE0
07FFE0
F8001F
F8001F
F8001F
F8001F
F8001F
F8001F
F8001F
F8001F
F8001F
F8001F
F8001F
F8001F
F8001F
F8001F
07FFE0
07FFE0
07FFE0
07FFE0
07FFE0
ENDCHAR
STARTCHAR 25D8
ENCODING 9688
SWIDTH 586 0
DWIDTH 34 0
BBX 24 44 5 -10
BITMAP
FFFFFF
FFFFFF
FFFFFF
FFFFFF
FFFFFF
FFFFFF
FFFFFF
FFFFFF
FFFFFF
FFFFFF
FFFFFF
FFFFFF
FFFFFF
FFFFFF
FFFFFF
FFC3FF
FFC3FF
FFC3FF
FFC3FF
FFC3FF
FFC3FF
FFC3FF
FFC3FF
FFC3FF
FFFFFF
FFFFFF
FFFFFF
FFFFFF
FFFFFF
FFFFFF
FFFFFF
FFFFFF
FFFFFF
FFFFFF
FFFFFF
FFFFFF
FFFFFF
FFFFFF
FFFFFF
FFFFFF
FFFFFF
FFFFFF
FFFFFF
FFFFFF
ENDCHAR
STARTCHAR 25D9
ENCODING 9689
SWIDTH 586 0
DWIDTH 34 0
BBX 24 34 5 0
BITMAP
FFFFFF
FFFFFF
FFFFFF
FFFFFF
FFFFFF
FFFFFF
FFFFFF
FFFFFF
FFFFFF
FFFFFF
F803FF
F803FF
F803FF
F803FF
F803FF
00001F
00001F
00001F
00001F
00001F
00001F
00001F
00001F
00001F
F803FF
F803FF
F803FF
F803FF
F803FF
FFFFFF
FFFFFF
FFFFFF
FFFFFF
FFFFFF
ENDCHAR
STARTCHAR 263A
ENCODING 9786
SWIDTH 586 0
DWIDTH 34 0
BBX 24 34 5 0
BITMAP
07FFE0
07FFE0
07FFE0
07FFE0
07FFE0
F8001F
F8001F
F8001F
F8001F
F8001F
FFC3FF
FFC3FF
FFC3FF
FFC3FF
FFC3FF
F8001F
F8001F
F8001F
F8001F
FFFFFF
FFFFFF
FFFFFF
FFFFFF
FFFFFF
F87C1F
F87C1F
F87C1F
F87C1F
F87C1F
07FFE0
07FFE0
07FFE0
07FFE0
07FFE0
ENDCHAR
STARTCHAR 263B
ENCODING 9787
SWIDTH 586 0
DWIDTH 34 0
BBX 24 34 5 0
BITMAP
07FFE0
07FFE0
07FFE0
07FFE0
07FFE0
FFFFFF
FFFFFF
FFFFFF
FFFFFF
FFFFFF
F87C1F
F87C1F
F87C1F
F87C1F
F87C1F
FFFFFF
FFFFFF
FFFFFF
FFFFFF
FFFFFF
F8001F
F8001F
F8001F
F8001F
FFC3FF
FFC3FF
FFC3FF
FFC3FF
FFC3FF
07FFE0
07FFE0
07FFE0
07FFE0
07FFE0
ENDCHAR
STARTCHAR 263C
ENCODING 9788
SWIDTH 586 0
DWIDTH 34 0
BBX 24 34 5 0
BITMAP
007C00
007C00
007C00
007C00
007C00
F87C1F
F87C1F
F87C1F
F87C1F
F87C1F
07C3E0
07C3E0
07C3E0
07C3E0
07C3E0
F8001F
F8001F
F8001F
F8001F
FFC3FF
07C3E0
07C3E0
07C3E0
07C3E0
F87C1F
F87C1F
F87C1F
F87C1F
F87C1F
007C00
007C00
007C00
007C00
007C00
ENDCHAR
STARTCHAR 2640
ENCODING 9792
SWIDTH 586 0
DWIDTH 34 0
BBX 24 34 5 0
BITMAP
07FFE0
07FFE0
07FFE0
07FFE0
07FFE0
F8001F
F8001F
F8001F
F8001F
F8001F
F8001F
F8001F
F8001F
F8001F
F8001F
07C3E0
07C3E0
07C3E0
07C3E0
07FFE0
007C00
007C00
007C00
007C00
FFFFFF
FFFFFF
FFFFFF
FFFFFF
FFFFFF
007C00
007C00
007C00
007C00
007C00
ENDCHAR
STARTCHAR 2642
ENCODING 9794
SWIDTH 586 0
DWIDTH 34 0
BBX 24 34 5 0
BITMAP
007FFF
007FFF
007FFF
007FFF
007FFF
007C1F
007C1F
007C1F
007C1F
007C1F
07C000
07C000
07C000
07C000
07C000
FFFFE0
FFFFE0
FFFFE0
FFFFE0
FFFFFF
F8001F
F8001F
F8001F
F8001F
F8001F
F8001F
F8001F
F8001F
F8001F
07FFE0
07FFE0
07FFE0
07FFE0
07FFE0
ENDCHAR
STARTCHAR 2660
ENCODING 9824
SWIDTH 586 0
DWIDTH 34 0
BBX 24 34 5 0
BITMAP
007C00
007C00
007C00
007C00
007C00
07FFE0
07FFE0
07FFE0
07FFE0
07FFE0
FFFFFF
FFFFFF
FFFFFF
FFFFFF
FFFFFF
FFFFFF
FFFFFF
FFFFFF
FFFFFF
FFFFFF
007C00
007C00
007C00
007C00
007C00
007C00
007C00
007C00
007C00
07FFE0
07FFE0
07FFE0
07FFE0
07FFE0
ENDCHAR
STARTCHAR 2663
ENCODING 9827
SWIDTH 586 0
DWIDTH 34 0
BBX 24 34 5 0
BITMAP
007C00
007C00
007C00
007C00
007C00
07C3E0
07C3E0
07C3E0
07C3E0
07C3E0
F8001F
F8001F
F8001F
F8001F
F8001F
F8001F
F8001F
F8001F
F8001F
FFFFFF
07FFE0
07FFE0
07FFE0
07FFE0
007C00
007C00
007C00
007C00
007C00
07FFE0
07FFE0
07FFE0
07FFE0
07FFE0
ENDCHAR
STARTCHAR 2665
ENCODING 9829
SWIDTH 586 0
DWIDTH 34 0
BBX 24 29 5 0
BITMAP
07C3E0
07C3E0
07C3E0
07C3E0
07C3E0
FFFFFF
FFFFFF
FFFFFF
FFFFFF
FFFFFF
FFFFFF
FFFFFF
FFFFFF
FFFFFF
FFFFFF
FFFFFF
FFFFFF
FFFFFF
FFFFFF
07FFE0
07FFE0
07FFE0
07FFE0
07FFE0
007C00
007C00
007C00
007C00
007C00
ENDCHAR
STARTCHAR 2666
ENCODING 9830
SWIDTH 586 0
DWIDTH 34 0
BBX 24 24 5 5
BITMAP
007C00
007C00
007C00
007C00
007C00
07FFE0
07FFE0
07FFE0
07FFE0
07FFE0
FFFFFF
FFFFFF
FFFFFF
FFFFFF
FFFFFF
07FFE0
07FFE0
07FFE0
07FFE0
007C00
007C00
007C00
007C00
007C00
ENDCHAR
STARTCHAR 266A
ENCODING 9834
SWIDTH 586 0
DWIDTH 34 0
BBX 24 34 5 0
BITMAP
07FFFF
07FFFF
07FFFF
07FFFF
07FFFF
07C01F
07C01F
07C01F
07C01F
07C01F
07FFFF
07FFFF
07FFFF
07FFFF
07FFFF
07C000
07C000
07C000
07C000
07C000
07C000
07C000
07C000
07C000
07C000
07C000
07C000
07C000
07C000
F80000
F80000
F80000
F80000
F80000
ENDCHAR
STARTCHAR 266B
ENCODING 9835
SWIDTH 586 0
DWIDTH 34 0
BBX 24 34 5 0
BITMAP
07FFFF
07FFFF
07FFFF
07FFFF
07FFFF
07C01F
07C01F
07C01F
07C01F
07C01F
07FFFF
07FFFF
07FFFF
07FFFF
07FFFF
07C01F
07C01F
07C01F
07C01F
07C01F
07C01F
07C01F
07C01F
07C01F
07C3E0
07C3E0
07C3E0
07C3E0
07C3E0
F80000
F80000
F80000
F80000
F80000
ENDCHAR
STARTCHAR 3044
ENCODING 12356
SWIDTH 586 0
DWIDTH 34 0
BBX 0 0 0 0
BITMAP
ENDCHAR
STARTCHAR 3046
ENCODING 12358
SWIDTH 586 0
DWIDTH 34 0
BBX 0 0 0 0
BITMAP
ENDCHAR
STARTCHAR 304B
ENCODING 12363
SWIDTH 586 0
DWIDTH 34 0
BBX 0 0 0 0
BITMAP
ENDCHAR
STARTCHAR 3057
ENCODING 12375
SWIDTH 586 0
DWIDTH 34 0
BBX 0 0 0 0
BITMAP
ENDCHAR
STARTCHAR 306E
ENCODING 12398
SWIDTH 586 0
DWIDTH 34 0
BBX 0 0 0 0
BITMAP
ENDCHAR
STARTCHAR 3093
ENCODING 12435
SWIDTH 586 0
DWIDTH 34 0
BBX 0 0 0 0
BITMAP
ENDCHAR
ENDFONT
